<svg xmlns="http://www.w3.org/2000/svg" width="164.491" height="431.878" viewBox="0 0 164.491 431.878"><defs><style>.a{opacity:0.6;}.b{fill:#224969;}</style></defs><g class="a" transform="translate(-930.312 453.26) rotate(-90)"><circle class="b" cx="1.684" cy="1.684" r="1.684" transform="translate(21.382 930.312)"/><circle class="b" cx="1.684" cy="1.684" r="1.684" transform="translate(54.345 930.312)"/><circle class="b" cx="1.684" cy="1.684" r="1.684" transform="translate(87.307 930.312)"/><circle class="b" cx="1.684" cy="1.684" r="1.684" transform="translate(120.269 930.312)"/><circle class="b" cx="1.684" cy="1.684" r="1.684" transform="translate(153.231 930.312)"/><circle class="b" cx="1.684" cy="1.684" r="1.684" transform="translate(186.194 930.312)"/><circle class="b" cx="1.684" cy="1.684" r="1.684" transform="translate(219.156 930.312)"/><circle class="b" cx="1.684" cy="1.684" r="1.684" transform="translate(252.118 930.312)"/><circle class="b" cx="1.684" cy="1.684" r="1.684" transform="translate(285.081 930.312)"/><circle class="b" cx="1.684" cy="1.684" r="1.684" transform="translate(318.043 930.312)"/><circle class="b" cx="1.684" cy="1.684" r="1.684" transform="translate(351.005 930.312)"/><circle class="b" cx="1.684" cy="1.684" r="1.684" transform="translate(383.967 930.312)"/><circle class="b" cx="1.684" cy="1.684" r="1.684" transform="translate(416.93 930.312)"/><circle class="b" cx="1.684" cy="1.684" r="1.684" transform="translate(449.892 930.312)"/><circle class="b" cx="1.684" cy="1.684" r="1.684" transform="translate(21.382 953.329)"/><circle class="b" cx="1.684" cy="1.684" r="1.684" transform="translate(54.345 953.329)"/><circle class="b" cx="1.684" cy="1.684" r="1.684" transform="translate(87.307 953.329)"/><circle class="b" cx="1.684" cy="1.684" r="1.684" transform="translate(120.269 953.329)"/><circle class="b" cx="1.684" cy="1.684" r="1.684" transform="translate(153.231 953.329)"/><circle class="b" cx="1.684" cy="1.684" r="1.684" transform="translate(186.194 953.329)"/><circle class="b" cx="1.684" cy="1.684" r="1.684" transform="translate(219.156 953.329)"/><circle class="b" cx="1.684" cy="1.684" r="1.684" transform="translate(252.118 953.329)"/><circle class="b" cx="1.684" cy="1.684" r="1.684" transform="translate(285.081 953.329)"/><circle class="b" cx="1.684" cy="1.684" r="1.684" transform="translate(318.043 953.329)"/><circle class="b" cx="1.684" cy="1.684" r="1.684" transform="translate(351.005 953.329)"/><circle class="b" cx="1.684" cy="1.684" r="1.684" transform="translate(383.967 953.329)"/><circle class="b" cx="1.684" cy="1.684" r="1.684" transform="translate(416.93 953.329)"/><circle class="b" cx="1.684" cy="1.684" r="1.684" transform="translate(449.892 953.329)"/><circle class="b" cx="1.684" cy="1.684" r="1.684" transform="translate(21.382 976.347)"/><circle class="b" cx="1.684" cy="1.684" r="1.684" transform="translate(54.345 976.347)"/><circle class="b" cx="1.684" cy="1.684" r="1.684" transform="translate(87.307 976.347)"/><circle class="b" cx="1.684" cy="1.684" r="1.684" transform="translate(120.269 976.347)"/><circle class="b" cx="1.684" cy="1.684" r="1.684" transform="translate(153.231 976.347)"/><circle class="b" cx="1.684" cy="1.684" r="1.684" transform="translate(186.194 976.347)"/><circle class="b" cx="1.684" cy="1.684" r="1.684" transform="translate(219.156 976.347)"/><circle class="b" cx="1.684" cy="1.684" r="1.684" transform="translate(252.118 976.347)"/><circle class="b" cx="1.684" cy="1.684" r="1.684" transform="translate(285.081 976.347)"/><circle class="b" cx="1.684" cy="1.684" r="1.684" transform="translate(318.043 976.347)"/><circle class="b" cx="1.684" cy="1.684" r="1.684" transform="translate(351.005 976.347)"/><circle class="b" cx="1.684" cy="1.684" r="1.684" transform="translate(383.967 976.347)"/><circle class="b" cx="1.684" cy="1.684" r="1.684" transform="translate(416.93 976.347)"/><circle class="b" cx="1.684" cy="1.684" r="1.684" transform="translate(449.892 976.347)"/><circle class="b" cx="1.684" cy="1.684" r="1.684" transform="translate(21.382 999.364)"/><circle class="b" cx="1.684" cy="1.684" r="1.684" transform="translate(54.345 999.364)"/><circle class="b" cx="1.684" cy="1.684" r="1.684" transform="translate(87.307 999.364)"/><circle class="b" cx="1.684" cy="1.684" r="1.684" transform="translate(120.269 999.364)"/><circle class="b" cx="1.684" cy="1.684" r="1.684" transform="translate(153.231 999.364)"/><circle class="b" cx="1.684" cy="1.684" r="1.684" transform="translate(186.194 999.364)"/><circle class="b" cx="1.684" cy="1.684" r="1.684" transform="translate(219.156 999.364)"/><circle class="b" cx="1.684" cy="1.684" r="1.684" transform="translate(252.118 999.364)"/><circle class="b" cx="1.684" cy="1.684" r="1.684" transform="translate(285.081 999.364)"/><circle class="b" cx="1.684" cy="1.684" r="1.684" transform="translate(318.043 999.364)"/><circle class="b" cx="1.684" cy="1.684" r="1.684" transform="translate(351.005 999.364)"/><circle class="b" cx="1.684" cy="1.684" r="1.684" transform="translate(383.967 999.364)"/><circle class="b" cx="1.684" cy="1.684" r="1.684" transform="translate(416.93 999.364)"/><circle class="b" cx="1.684" cy="1.684" r="1.684" transform="translate(449.892 999.364)"/><circle class="b" cx="1.684" cy="1.684" r="1.684" transform="translate(21.382 1022.382)"/><circle class="b" cx="1.684" cy="1.684" r="1.684" transform="translate(54.345 1022.382)"/><circle class="b" cx="1.684" cy="1.684" r="1.684" transform="translate(87.307 1022.382)"/><circle class="b" cx="1.684" cy="1.684" r="1.684" transform="translate(120.269 1022.382)"/><circle class="b" cx="1.684" cy="1.684" r="1.684" transform="translate(153.231 1022.382)"/><circle class="b" cx="1.684" cy="1.684" r="1.684" transform="translate(186.194 1022.382)"/><circle class="b" cx="1.684" cy="1.684" r="1.684" transform="translate(219.156 1022.382)"/><circle class="b" cx="1.684" cy="1.684" r="1.684" transform="translate(252.118 1022.382)"/><circle class="b" cx="1.684" cy="1.684" r="1.684" transform="translate(285.081 1022.382)"/><circle class="b" cx="1.684" cy="1.684" r="1.684" transform="translate(318.043 1022.382)"/><circle class="b" cx="1.684" cy="1.684" r="1.684" transform="translate(351.005 1022.382)"/><circle class="b" cx="1.684" cy="1.684" r="1.684" transform="translate(383.967 1022.382)"/><circle class="b" cx="1.684" cy="1.684" r="1.684" transform="translate(416.93 1022.382)"/><circle class="b" cx="1.684" cy="1.684" r="1.684" transform="translate(449.892 1022.382)"/><circle class="b" cx="1.684" cy="1.684" r="1.684" transform="translate(21.382 1045.399)"/><circle class="b" cx="1.684" cy="1.684" r="1.684" transform="translate(54.345 1045.399)"/><circle class="b" cx="1.684" cy="1.684" r="1.684" transform="translate(87.307 1045.399)"/><circle class="b" cx="1.684" cy="1.684" r="1.684" transform="translate(120.269 1045.399)"/><circle class="b" cx="1.684" cy="1.684" r="1.684" transform="translate(153.231 1045.399)"/><circle class="b" cx="1.684" cy="1.684" r="1.684" transform="translate(186.194 1045.399)"/><circle class="b" cx="1.684" cy="1.684" r="1.684" transform="translate(219.156 1045.399)"/><circle class="b" cx="1.684" cy="1.684" r="1.684" transform="translate(252.118 1045.399)"/><circle class="b" cx="1.684" cy="1.684" r="1.684" transform="translate(285.081 1045.399)"/><circle class="b" cx="1.684" cy="1.684" r="1.684" transform="translate(318.043 1045.399)"/><circle class="b" cx="1.684" cy="1.684" r="1.684" transform="translate(351.005 1045.399)"/><circle class="b" cx="1.684" cy="1.684" r="1.684" transform="translate(383.967 1045.399)"/><circle class="b" cx="1.684" cy="1.684" r="1.684" transform="translate(416.93 1045.399)"/><circle class="b" cx="1.684" cy="1.684" r="1.684" transform="translate(449.892 1045.399)"/><circle class="b" cx="1.684" cy="1.684" r="1.684" transform="translate(21.382 1068.417)"/><circle class="b" cx="1.684" cy="1.684" r="1.684" transform="translate(54.345 1068.417)"/><circle class="b" cx="1.684" cy="1.684" r="1.684" transform="translate(87.307 1068.417)"/><circle class="b" cx="1.684" cy="1.684" r="1.684" transform="translate(120.269 1068.417)"/><circle class="b" cx="1.684" cy="1.684" r="1.684" transform="translate(153.231 1068.417)"/><circle class="b" cx="1.684" cy="1.684" r="1.684" transform="translate(186.194 1068.417)"/><circle class="b" cx="1.684" cy="1.684" r="1.684" transform="translate(219.156 1068.417)"/><circle class="b" cx="1.684" cy="1.684" r="1.684" transform="translate(252.118 1068.417)"/><circle class="b" cx="1.684" cy="1.684" r="1.684" transform="translate(285.081 1068.417)"/><circle class="b" cx="1.684" cy="1.684" r="1.684" transform="translate(318.043 1068.417)"/><circle class="b" cx="1.684" cy="1.684" r="1.684" transform="translate(351.005 1068.417)"/><circle class="b" cx="1.684" cy="1.684" r="1.684" transform="translate(383.967 1068.417)"/><circle class="b" cx="1.684" cy="1.684" r="1.684" transform="translate(416.93 1068.417)"/><circle class="b" cx="1.684" cy="1.684" r="1.684" transform="translate(449.892 1068.417)"/><circle class="b" cx="1.684" cy="1.684" r="1.684" transform="translate(21.382 1091.434)"/><circle class="b" cx="1.684" cy="1.684" r="1.684" transform="translate(54.345 1091.434)"/><circle class="b" cx="1.684" cy="1.684" r="1.684" transform="translate(87.307 1091.434)"/><circle class="b" cx="1.684" cy="1.684" r="1.684" transform="translate(120.269 1091.434)"/><circle class="b" cx="1.684" cy="1.684" r="1.684" transform="translate(153.231 1091.434)"/><circle class="b" cx="1.684" cy="1.684" r="1.684" transform="translate(186.194 1091.434)"/><circle class="b" cx="1.684" cy="1.684" r="1.684" transform="translate(219.156 1091.434)"/><circle class="b" cx="1.684" cy="1.684" r="1.684" transform="translate(252.118 1091.434)"/><circle class="b" cx="1.684" cy="1.684" r="1.684" transform="translate(285.081 1091.434)"/><circle class="b" cx="1.684" cy="1.684" r="1.684" transform="translate(318.043 1091.434)"/><circle class="b" cx="1.684" cy="1.684" r="1.684" transform="translate(351.005 1091.434)"/><circle class="b" cx="1.684" cy="1.684" r="1.684" transform="translate(383.967 1091.434)"/><circle class="b" cx="1.684" cy="1.684" r="1.684" transform="translate(416.93 1091.434)"/><circle class="b" cx="1.684" cy="1.684" r="1.684" transform="translate(449.892 1091.434)"/></g></svg>