<svg xmlns="http://www.w3.org/2000/svg" width="436.066" height="166.085" viewBox="0 0 436.066 166.085"><defs><style>.a{opacity:0.6;}.b{fill:#fff;}</style></defs><g class="a" transform="translate(-21.382 -930.312)"><circle class="b" cx="1.701" cy="1.701" r="1.701" transform="translate(21.382 930.312)"/><circle class="b" cx="1.701" cy="1.701" r="1.701" transform="translate(54.664 930.312)"/><circle class="b" cx="1.701" cy="1.701" r="1.701" transform="translate(87.946 930.312)"/><circle class="b" cx="1.701" cy="1.701" r="1.701" transform="translate(121.228 930.312)"/><circle class="b" cx="1.701" cy="1.701" r="1.701" transform="translate(154.51 930.312)"/><circle class="b" cx="1.701" cy="1.701" r="1.701" transform="translate(187.792 930.312)"/><circle class="b" cx="1.701" cy="1.701" r="1.701" transform="translate(221.074 930.312)"/><circle class="b" cx="1.701" cy="1.701" r="1.701" transform="translate(254.356 930.312)"/><circle class="b" cx="1.701" cy="1.701" r="1.701" transform="translate(287.638 930.312)"/><circle class="b" cx="1.701" cy="1.701" r="1.701" transform="translate(320.919 930.312)"/><circle class="b" cx="1.701" cy="1.701" r="1.701" transform="translate(354.201 930.312)"/><circle class="b" cx="1.701" cy="1.701" r="1.701" transform="translate(387.483 930.312)"/><circle class="b" cx="1.701" cy="1.701" r="1.701" transform="translate(420.765 930.312)"/><circle class="b" cx="1.701" cy="1.701" r="1.701" transform="translate(454.047 930.312)"/><circle class="b" cx="1.701" cy="1.701" r="1.701" transform="translate(21.382 953.553)"/><circle class="b" cx="1.701" cy="1.701" r="1.701" transform="translate(54.664 953.553)"/><circle class="b" cx="1.701" cy="1.701" r="1.701" transform="translate(87.946 953.553)"/><circle class="b" cx="1.701" cy="1.701" r="1.701" transform="translate(121.228 953.553)"/><circle class="b" cx="1.701" cy="1.701" r="1.701" transform="translate(154.51 953.553)"/><circle class="b" cx="1.701" cy="1.701" r="1.701" transform="translate(187.792 953.553)"/><circle class="b" cx="1.701" cy="1.701" r="1.701" transform="translate(221.074 953.553)"/><circle class="b" cx="1.701" cy="1.701" r="1.701" transform="translate(254.356 953.553)"/><circle class="b" cx="1.701" cy="1.701" r="1.701" transform="translate(287.638 953.553)"/><circle class="b" cx="1.701" cy="1.701" r="1.701" transform="translate(320.919 953.553)"/><circle class="b" cx="1.701" cy="1.701" r="1.701" transform="translate(354.201 953.553)"/><circle class="b" cx="1.701" cy="1.701" r="1.701" transform="translate(387.483 953.553)"/><circle class="b" cx="1.701" cy="1.701" r="1.701" transform="translate(420.765 953.553)"/><circle class="b" cx="1.701" cy="1.701" r="1.701" transform="translate(454.047 953.553)"/><circle class="b" cx="1.701" cy="1.701" r="1.701" transform="translate(21.382 976.793)"/><circle class="b" cx="1.701" cy="1.701" r="1.701" transform="translate(54.664 976.793)"/><circle class="b" cx="1.701" cy="1.701" r="1.701" transform="translate(87.946 976.793)"/><circle class="b" cx="1.701" cy="1.701" r="1.701" transform="translate(121.228 976.793)"/><circle class="b" cx="1.701" cy="1.701" r="1.701" transform="translate(154.51 976.793)"/><circle class="b" cx="1.701" cy="1.701" r="1.701" transform="translate(187.792 976.793)"/><circle class="b" cx="1.701" cy="1.701" r="1.701" transform="translate(221.074 976.793)"/><circle class="b" cx="1.701" cy="1.701" r="1.701" transform="translate(254.356 976.793)"/><circle class="b" cx="1.701" cy="1.701" r="1.701" transform="translate(287.638 976.793)"/><circle class="b" cx="1.701" cy="1.701" r="1.701" transform="translate(320.919 976.793)"/><circle class="b" cx="1.701" cy="1.701" r="1.701" transform="translate(354.201 976.793)"/><circle class="b" cx="1.701" cy="1.701" r="1.701" transform="translate(387.483 976.793)"/><circle class="b" cx="1.701" cy="1.701" r="1.701" transform="translate(420.765 976.793)"/><circle class="b" cx="1.701" cy="1.701" r="1.701" transform="translate(454.047 976.793)"/><circle class="b" cx="1.701" cy="1.701" r="1.701" transform="translate(21.382 1000.034)"/><circle class="b" cx="1.701" cy="1.701" r="1.701" transform="translate(54.664 1000.034)"/><circle class="b" cx="1.701" cy="1.701" r="1.701" transform="translate(87.946 1000.034)"/><circle class="b" cx="1.701" cy="1.701" r="1.701" transform="translate(121.228 1000.034)"/><circle class="b" cx="1.701" cy="1.701" r="1.701" transform="translate(154.51 1000.034)"/><circle class="b" cx="1.701" cy="1.701" r="1.701" transform="translate(187.792 1000.034)"/><circle class="b" cx="1.701" cy="1.701" r="1.701" transform="translate(221.074 1000.034)"/><circle class="b" cx="1.701" cy="1.701" r="1.701" transform="translate(254.356 1000.034)"/><circle class="b" cx="1.701" cy="1.701" r="1.701" transform="translate(287.638 1000.034)"/><circle class="b" cx="1.701" cy="1.701" r="1.701" transform="translate(320.919 1000.034)"/><circle class="b" cx="1.701" cy="1.701" r="1.701" transform="translate(354.201 1000.034)"/><circle class="b" cx="1.701" cy="1.701" r="1.701" transform="translate(387.483 1000.034)"/><circle class="b" cx="1.701" cy="1.701" r="1.701" transform="translate(420.765 1000.034)"/><circle class="b" cx="1.701" cy="1.701" r="1.701" transform="translate(454.047 1000.034)"/><circle class="b" cx="1.701" cy="1.701" r="1.701" transform="translate(21.382 1023.275)"/><circle class="b" cx="1.701" cy="1.701" r="1.701" transform="translate(54.664 1023.275)"/><circle class="b" cx="1.701" cy="1.701" r="1.701" transform="translate(87.946 1023.275)"/><circle class="b" cx="1.701" cy="1.701" r="1.701" transform="translate(121.228 1023.275)"/><circle class="b" cx="1.701" cy="1.701" r="1.701" transform="translate(154.51 1023.275)"/><circle class="b" cx="1.701" cy="1.701" r="1.701" transform="translate(187.792 1023.275)"/><circle class="b" cx="1.701" cy="1.701" r="1.701" transform="translate(221.074 1023.275)"/><circle class="b" cx="1.701" cy="1.701" r="1.701" transform="translate(254.356 1023.275)"/><circle class="b" cx="1.701" cy="1.701" r="1.701" transform="translate(287.638 1023.275)"/><circle class="b" cx="1.701" cy="1.701" r="1.701" transform="translate(320.919 1023.275)"/><circle class="b" cx="1.701" cy="1.701" r="1.701" transform="translate(354.201 1023.275)"/><circle class="b" cx="1.701" cy="1.701" r="1.701" transform="translate(387.483 1023.275)"/><circle class="b" cx="1.701" cy="1.701" r="1.701" transform="translate(420.765 1023.275)"/><circle class="b" cx="1.701" cy="1.701" r="1.701" transform="translate(454.047 1023.275)"/><circle class="b" cx="1.701" cy="1.701" r="1.701" transform="translate(21.382 1046.515)"/><circle class="b" cx="1.701" cy="1.701" r="1.701" transform="translate(54.664 1046.515)"/><circle class="b" cx="1.701" cy="1.701" r="1.701" transform="translate(87.946 1046.515)"/><circle class="b" cx="1.701" cy="1.701" r="1.701" transform="translate(121.228 1046.515)"/><circle class="b" cx="1.701" cy="1.701" r="1.701" transform="translate(154.51 1046.515)"/><circle class="b" cx="1.701" cy="1.701" r="1.701" transform="translate(187.792 1046.515)"/><circle class="b" cx="1.701" cy="1.701" r="1.701" transform="translate(221.074 1046.515)"/><circle class="b" cx="1.701" cy="1.701" r="1.701" transform="translate(254.356 1046.515)"/><circle class="b" cx="1.701" cy="1.701" r="1.701" transform="translate(287.638 1046.515)"/><circle class="b" cx="1.701" cy="1.701" r="1.701" transform="translate(320.919 1046.515)"/><circle class="b" cx="1.701" cy="1.701" r="1.701" transform="translate(354.201 1046.515)"/><circle class="b" cx="1.701" cy="1.701" r="1.701" transform="translate(387.483 1046.515)"/><circle class="b" cx="1.701" cy="1.701" r="1.701" transform="translate(420.765 1046.515)"/><circle class="b" cx="1.701" cy="1.701" r="1.701" transform="translate(454.047 1046.515)"/><circle class="b" cx="1.701" cy="1.701" r="1.701" transform="translate(21.382 1069.756)"/><circle class="b" cx="1.701" cy="1.701" r="1.701" transform="translate(54.664 1069.756)"/><circle class="b" cx="1.701" cy="1.701" r="1.701" transform="translate(87.946 1069.756)"/><circle class="b" cx="1.701" cy="1.701" r="1.701" transform="translate(121.228 1069.756)"/><circle class="b" cx="1.701" cy="1.701" r="1.701" transform="translate(154.51 1069.756)"/><circle class="b" cx="1.701" cy="1.701" r="1.701" transform="translate(187.792 1069.756)"/><circle class="b" cx="1.701" cy="1.701" r="1.701" transform="translate(221.074 1069.756)"/><circle class="b" cx="1.701" cy="1.701" r="1.701" transform="translate(254.356 1069.756)"/><circle class="b" cx="1.701" cy="1.701" r="1.701" transform="translate(287.638 1069.756)"/><circle class="b" cx="1.701" cy="1.701" r="1.701" transform="translate(320.919 1069.756)"/><circle class="b" cx="1.701" cy="1.701" r="1.701" transform="translate(354.201 1069.756)"/><circle class="b" cx="1.701" cy="1.701" r="1.701" transform="translate(387.483 1069.756)"/><circle class="b" cx="1.701" cy="1.701" r="1.701" transform="translate(420.765 1069.756)"/><circle class="b" cx="1.701" cy="1.701" r="1.701" transform="translate(454.047 1069.756)"/><circle class="b" cx="1.701" cy="1.701" r="1.701" transform="translate(21.382 1092.996)"/><circle class="b" cx="1.701" cy="1.701" r="1.701" transform="translate(54.664 1092.996)"/><circle class="b" cx="1.701" cy="1.701" r="1.701" transform="translate(87.946 1092.996)"/><circle class="b" cx="1.701" cy="1.701" r="1.701" transform="translate(121.228 1092.996)"/><circle class="b" cx="1.701" cy="1.701" r="1.701" transform="translate(154.51 1092.996)"/><circle class="b" cx="1.701" cy="1.701" r="1.701" transform="translate(187.792 1092.996)"/><circle class="b" cx="1.701" cy="1.701" r="1.701" transform="translate(221.074 1092.996)"/><circle class="b" cx="1.701" cy="1.701" r="1.701" transform="translate(254.356 1092.996)"/><circle class="b" cx="1.701" cy="1.701" r="1.701" transform="translate(287.638 1092.996)"/><circle class="b" cx="1.701" cy="1.701" r="1.701" transform="translate(320.919 1092.996)"/><circle class="b" cx="1.701" cy="1.701" r="1.701" transform="translate(354.201 1092.996)"/><circle class="b" cx="1.701" cy="1.701" r="1.701" transform="translate(387.483 1092.996)"/><circle class="b" cx="1.701" cy="1.701" r="1.701" transform="translate(420.765 1092.996)"/><circle class="b" cx="1.701" cy="1.701" r="1.701" transform="translate(454.047 1092.996)"/></g></svg>