<svg xmlns="http://www.w3.org/2000/svg" width="593.952" height="226.22" viewBox="0 0 593.952 226.22"><defs><style>.a{opacity:0.6;}.b{fill:#224969;}</style></defs><g class="a" transform="translate(-21.382 -930.312)"><circle class="b" cx="2.316" cy="2.316" r="2.316" transform="translate(21.382 930.312)"/><circle class="b" cx="2.316" cy="2.316" r="2.316" transform="translate(66.715 930.312)"/><circle class="b" cx="2.316" cy="2.316" r="2.316" transform="translate(112.047 930.312)"/><circle class="b" cx="2.316" cy="2.316" r="2.316" transform="translate(157.379 930.312)"/><circle class="b" cx="2.316" cy="2.316" r="2.316" transform="translate(202.711 930.312)"/><circle class="b" cx="2.316" cy="2.316" r="2.316" transform="translate(248.044 930.312)"/><circle class="b" cx="2.316" cy="2.316" r="2.316" transform="translate(293.376 930.312)"/><circle class="b" cx="2.316" cy="2.316" r="2.316" transform="translate(338.708 930.312)"/><circle class="b" cx="2.316" cy="2.316" r="2.316" transform="translate(384.041 930.312)"/><circle class="b" cx="2.316" cy="2.316" r="2.316" transform="translate(429.373 930.312)"/><circle class="b" cx="2.316" cy="2.316" r="2.316" transform="translate(474.705 930.312)"/><circle class="b" cx="2.316" cy="2.316" r="2.316" transform="translate(520.037 930.312)"/><circle class="b" cx="2.316" cy="2.316" r="2.316" transform="translate(565.37 930.312)"/><circle class="b" cx="2.316" cy="2.316" r="2.316" transform="translate(610.702 930.312)"/><circle class="b" cx="2.316" cy="2.316" r="2.316" transform="translate(21.382 961.967)"/><circle class="b" cx="2.316" cy="2.316" r="2.316" transform="translate(66.715 961.967)"/><circle class="b" cx="2.316" cy="2.316" r="2.316" transform="translate(112.047 961.967)"/><circle class="b" cx="2.316" cy="2.316" r="2.316" transform="translate(157.379 961.967)"/><circle class="b" cx="2.316" cy="2.316" r="2.316" transform="translate(202.711 961.967)"/><circle class="b" cx="2.316" cy="2.316" r="2.316" transform="translate(248.044 961.967)"/><circle class="b" cx="2.316" cy="2.316" r="2.316" transform="translate(293.376 961.967)"/><circle class="b" cx="2.316" cy="2.316" r="2.316" transform="translate(338.708 961.967)"/><circle class="b" cx="2.316" cy="2.316" r="2.316" transform="translate(384.041 961.967)"/><circle class="b" cx="2.316" cy="2.316" r="2.316" transform="translate(429.373 961.967)"/><circle class="b" cx="2.316" cy="2.316" r="2.316" transform="translate(474.705 961.967)"/><circle class="b" cx="2.316" cy="2.316" r="2.316" transform="translate(520.037 961.967)"/><circle class="b" cx="2.316" cy="2.316" r="2.316" transform="translate(565.37 961.967)"/><circle class="b" cx="2.316" cy="2.316" r="2.316" transform="translate(610.702 961.967)"/><circle class="b" cx="2.316" cy="2.316" r="2.316" transform="translate(21.382 993.623)"/><circle class="b" cx="2.316" cy="2.316" r="2.316" transform="translate(66.715 993.623)"/><circle class="b" cx="2.316" cy="2.316" r="2.316" transform="translate(112.047 993.623)"/><circle class="b" cx="2.316" cy="2.316" r="2.316" transform="translate(157.379 993.623)"/><circle class="b" cx="2.316" cy="2.316" r="2.316" transform="translate(202.711 993.623)"/><circle class="b" cx="2.316" cy="2.316" r="2.316" transform="translate(248.044 993.623)"/><circle class="b" cx="2.316" cy="2.316" r="2.316" transform="translate(293.376 993.623)"/><circle class="b" cx="2.316" cy="2.316" r="2.316" transform="translate(338.708 993.623)"/><circle class="b" cx="2.316" cy="2.316" r="2.316" transform="translate(384.041 993.623)"/><circle class="b" cx="2.316" cy="2.316" r="2.316" transform="translate(429.373 993.623)"/><circle class="b" cx="2.316" cy="2.316" r="2.316" transform="translate(474.705 993.623)"/><circle class="b" cx="2.316" cy="2.316" r="2.316" transform="translate(520.037 993.623)"/><circle class="b" cx="2.316" cy="2.316" r="2.316" transform="translate(565.37 993.623)"/><circle class="b" cx="2.316" cy="2.316" r="2.316" transform="translate(610.702 993.623)"/><circle class="b" cx="2.316" cy="2.316" r="2.316" transform="translate(21.382 1025.278)"/><circle class="b" cx="2.316" cy="2.316" r="2.316" transform="translate(66.715 1025.278)"/><circle class="b" cx="2.316" cy="2.316" r="2.316" transform="translate(112.047 1025.278)"/><circle class="b" cx="2.316" cy="2.316" r="2.316" transform="translate(157.379 1025.278)"/><circle class="b" cx="2.316" cy="2.316" r="2.316" transform="translate(202.711 1025.278)"/><circle class="b" cx="2.316" cy="2.316" r="2.316" transform="translate(248.044 1025.278)"/><circle class="b" cx="2.316" cy="2.316" r="2.316" transform="translate(293.376 1025.278)"/><circle class="b" cx="2.316" cy="2.316" r="2.316" transform="translate(338.708 1025.278)"/><circle class="b" cx="2.316" cy="2.316" r="2.316" transform="translate(384.041 1025.278)"/><circle class="b" cx="2.316" cy="2.316" r="2.316" transform="translate(429.373 1025.278)"/><circle class="b" cx="2.316" cy="2.316" r="2.316" transform="translate(474.705 1025.278)"/><circle class="b" cx="2.316" cy="2.316" r="2.316" transform="translate(520.037 1025.278)"/><circle class="b" cx="2.316" cy="2.316" r="2.316" transform="translate(565.37 1025.278)"/><circle class="b" cx="2.316" cy="2.316" r="2.316" transform="translate(610.702 1025.278)"/><circle class="b" cx="2.316" cy="2.316" r="2.316" transform="translate(21.382 1056.934)"/><circle class="b" cx="2.316" cy="2.316" r="2.316" transform="translate(66.715 1056.934)"/><circle class="b" cx="2.316" cy="2.316" r="2.316" transform="translate(112.047 1056.934)"/><circle class="b" cx="2.316" cy="2.316" r="2.316" transform="translate(157.379 1056.934)"/><circle class="b" cx="2.316" cy="2.316" r="2.316" transform="translate(202.711 1056.934)"/><circle class="b" cx="2.316" cy="2.316" r="2.316" transform="translate(248.044 1056.934)"/><circle class="b" cx="2.316" cy="2.316" r="2.316" transform="translate(293.376 1056.934)"/><circle class="b" cx="2.316" cy="2.316" r="2.316" transform="translate(338.708 1056.934)"/><circle class="b" cx="2.316" cy="2.316" r="2.316" transform="translate(384.041 1056.934)"/><circle class="b" cx="2.316" cy="2.316" r="2.316" transform="translate(429.373 1056.934)"/><circle class="b" cx="2.316" cy="2.316" r="2.316" transform="translate(474.705 1056.934)"/><circle class="b" cx="2.316" cy="2.316" r="2.316" transform="translate(520.037 1056.934)"/><circle class="b" cx="2.316" cy="2.316" r="2.316" transform="translate(565.37 1056.934)"/><circle class="b" cx="2.316" cy="2.316" r="2.316" transform="translate(610.702 1056.934)"/><circle class="b" cx="2.316" cy="2.316" r="2.316" transform="translate(21.382 1088.589)"/><circle class="b" cx="2.316" cy="2.316" r="2.316" transform="translate(66.715 1088.589)"/><circle class="b" cx="2.316" cy="2.316" r="2.316" transform="translate(112.047 1088.589)"/><circle class="b" cx="2.316" cy="2.316" r="2.316" transform="translate(157.379 1088.589)"/><circle class="b" cx="2.316" cy="2.316" r="2.316" transform="translate(202.711 1088.589)"/><circle class="b" cx="2.316" cy="2.316" r="2.316" transform="translate(248.044 1088.589)"/><circle class="b" cx="2.316" cy="2.316" r="2.316" transform="translate(293.376 1088.589)"/><circle class="b" cx="2.316" cy="2.316" r="2.316" transform="translate(338.708 1088.589)"/><circle class="b" cx="2.316" cy="2.316" r="2.316" transform="translate(384.041 1088.589)"/><circle class="b" cx="2.316" cy="2.316" r="2.316" transform="translate(429.373 1088.589)"/><circle class="b" cx="2.316" cy="2.316" r="2.316" transform="translate(474.705 1088.589)"/><circle class="b" cx="2.316" cy="2.316" r="2.316" transform="translate(520.037 1088.589)"/><circle class="b" cx="2.316" cy="2.316" r="2.316" transform="translate(565.37 1088.589)"/><circle class="b" cx="2.316" cy="2.316" r="2.316" transform="translate(610.702 1088.589)"/><circle class="b" cx="2.316" cy="2.316" r="2.316" transform="translate(21.382 1120.244)"/><circle class="b" cx="2.316" cy="2.316" r="2.316" transform="translate(66.715 1120.244)"/><circle class="b" cx="2.316" cy="2.316" r="2.316" transform="translate(112.047 1120.244)"/><circle class="b" cx="2.316" cy="2.316" r="2.316" transform="translate(157.379 1120.244)"/><circle class="b" cx="2.316" cy="2.316" r="2.316" transform="translate(202.711 1120.244)"/><circle class="b" cx="2.316" cy="2.316" r="2.316" transform="translate(248.044 1120.244)"/><circle class="b" cx="2.316" cy="2.316" r="2.316" transform="translate(293.376 1120.244)"/><circle class="b" cx="2.316" cy="2.316" r="2.316" transform="translate(338.708 1120.244)"/><circle class="b" cx="2.316" cy="2.316" r="2.316" transform="translate(384.041 1120.244)"/><circle class="b" cx="2.316" cy="2.316" r="2.316" transform="translate(429.373 1120.244)"/><circle class="b" cx="2.316" cy="2.316" r="2.316" transform="translate(474.705 1120.244)"/><circle class="b" cx="2.316" cy="2.316" r="2.316" transform="translate(520.037 1120.244)"/><circle class="b" cx="2.316" cy="2.316" r="2.316" transform="translate(565.37 1120.244)"/><circle class="b" cx="2.316" cy="2.316" r="2.316" transform="translate(610.702 1120.244)"/><circle class="b" cx="2.316" cy="2.316" r="2.316" transform="translate(21.382 1151.9)"/><circle class="b" cx="2.316" cy="2.316" r="2.316" transform="translate(66.715 1151.9)"/><circle class="b" cx="2.316" cy="2.316" r="2.316" transform="translate(112.047 1151.9)"/><circle class="b" cx="2.316" cy="2.316" r="2.316" transform="translate(157.379 1151.9)"/><circle class="b" cx="2.316" cy="2.316" r="2.316" transform="translate(202.711 1151.9)"/><circle class="b" cx="2.316" cy="2.316" r="2.316" transform="translate(248.044 1151.9)"/><circle class="b" cx="2.316" cy="2.316" r="2.316" transform="translate(293.376 1151.9)"/><circle class="b" cx="2.316" cy="2.316" r="2.316" transform="translate(338.708 1151.9)"/><circle class="b" cx="2.316" cy="2.316" r="2.316" transform="translate(384.041 1151.9)"/><circle class="b" cx="2.316" cy="2.316" r="2.316" transform="translate(429.373 1151.9)"/><circle class="b" cx="2.316" cy="2.316" r="2.316" transform="translate(474.705 1151.9)"/><circle class="b" cx="2.316" cy="2.316" r="2.316" transform="translate(520.037 1151.9)"/><circle class="b" cx="2.316" cy="2.316" r="2.316" transform="translate(565.37 1151.9)"/><circle class="b" cx="2.316" cy="2.316" r="2.316" transform="translate(610.702 1151.9)"/></g></svg>