<svg xmlns="http://www.w3.org/2000/svg" width="44.325" height="44.326" viewBox="0 0 44.325 44.326"><defs><style>.a{fill:#fff;}</style></defs><g transform="translate(0 0)"><path class="a" d="M112.777,974.049a22.163,22.163,0,1,0,22.162,22.162A22.187,22.187,0,0,0,112.777,974.049Zm0,41.79A19.627,19.627,0,1,1,132.4,996.211,19.649,19.649,0,0,1,112.777,1015.839Z" transform="translate(-90.615 -974.049)"/><path class="a" d="M102.2,983.556a2.211,2.211,0,1,0-.056,4.411h.028a2.212,2.212,0,1,0,.028-4.411Z" transform="translate(-87.529 -970.854)"/><path class="a" d="M99.982,988.161h4.244v12.766H99.982Z" transform="translate(-87.466 -969.305)"/><path class="a" d="M112.982,987.937a5.317,5.317,0,0,0-3.824,2.151v-1.852h-4.242V1001h4.242v-7.129a2.9,2.9,0,0,1,.14-1.036,2.322,2.322,0,0,1,2.177-1.551c1.535,0,2.15,1.171,2.15,2.886V1001h4.242v-7.32C117.867,989.762,115.773,987.937,112.982,987.937Z" transform="translate(-85.807 -969.38)"/></g></svg>