<svg xmlns="http://www.w3.org/2000/svg" width="44.326" height="44.326" viewBox="0 0 44.326 44.326"><defs><style>.a{fill:#fff;}</style></defs><g transform="translate(0 0)"><path class="a" d="M152.255,974.049a22.163,22.163,0,1,0,22.162,22.162A22.189,22.189,0,0,0,152.255,974.049Zm0,41.79a19.627,19.627,0,1,1,19.626-19.627A19.649,19.649,0,0,1,152.255,1015.839Z" transform="translate(-130.091 -974.049)"/><path class="a" d="M160.7,985.979a9.6,9.6,0,0,1-2.647.726,4.563,4.563,0,0,0,2.02-2.539,9.175,9.175,0,0,1-2.912,1.112,4.593,4.593,0,0,0-7.945,3.14,4.693,4.693,0,0,0,.107,1.048,13,13,0,0,1-9.467-4.8,4.6,4.6,0,0,0,1.411,6.139,4.537,4.537,0,0,1-2.075-.567v.051a4.614,4.614,0,0,0,3.68,4.512,4.558,4.558,0,0,1-1.2.152,4.074,4.074,0,0,1-.87-.079,4.636,4.636,0,0,0,4.292,3.2,9.224,9.224,0,0,1-5.695,1.959,8.464,8.464,0,0,1-1.1-.063,13.072,13.072,0,0,0,20.118-11.008c0-.2-.008-.4-.017-.595A9.171,9.171,0,0,0,160.7,985.979Z" transform="translate(-127.333 -970.763)"/></g></svg>