<svg xmlns="http://www.w3.org/2000/svg" width="44.326" height="44.326" viewBox="0 0 44.326 44.326"><defs><style>.a{fill:#fff;}</style></defs><g transform="translate(0 0)"><path class="a" d="M73.3,974.049a22.163,22.163,0,1,0,22.162,22.162A22.189,22.189,0,0,0,73.3,974.049Zm0,41.79a19.627,19.627,0,1,1,19.626-19.627A19.649,19.649,0,0,1,73.3,1015.839Z" transform="translate(-51.138 -974.049)"/><path class="a" d="M74.468,981.635H71.463A4.467,4.467,0,0,0,67,986.1v3.382H64.2a1.267,1.267,0,1,0,0,2.535H67v11.74a1.268,1.268,0,1,0,2.536,0v-11.74H73.87a1.267,1.267,0,1,0,0-2.535H69.538V986.1a1.929,1.929,0,0,1,1.925-1.926h3.005a1.267,1.267,0,1,0,0-2.535Z" transform="translate(-47.172 -971.499)"/></g></svg>