<svg xmlns="http://www.w3.org/2000/svg" xmlns:xlink="http://www.w3.org/1999/xlink" width="527" height="127" viewBox="0 0 527 127"><defs><style>.a{fill:#fff;stroke:#707070;}.b{clip-path:url(#a);}.c{fill:#0087b6;}</style><clipPath id="a"><rect class="a" width="527" height="127" transform="translate(37 5155.641)"/></clipPath></defs><g class="b" transform="translate(-37 -5155.641)"><path class="c" d="M140.715,54.361l3.678,6.325c2.742-.759,5.468-1.446,8.132-2.315.438-.143.61-1.086.905-1.659l-.228.262c2.609-3.044,5.218-6.088,7.864-9.173l-1.64-3.875-.268.317,4.407-.878-4.43-3.643.154.227c.212-2.892,2.882-2.416,4.3-3.327l17.928,3.4c-3.847-3.552-6.688-6.686-11.242-6.776.069-1.192.123-2.155.187-3.258l-5.15-1.747c3.244-.982,5.925-1.9,8.669-2.564a4.666,4.666,0,0,1,2.872.4c4.7,2.224,9.376.7,14.169.719-9.143-1.782-16.6-6.432-23.212-12.909,2.721-3.634,5.757.756,8.689-.882,2.175-1.215,5.244-.786,8.182-1.119-.879-3.491-3.909-3.363-6.493-4.6l5.323-2.724L179.789.081c6.421-.187,12.464-.2,18.584,1.675a90.509,90.509,0,0,0,14.212,2.7c1.547.213,3.274-1.116,4.772-.814,1.477.3,2.662,2.221,4.159,2.645,5.989,1.694,12.035,3.16,18.087,4.558,4.693,1.084,9.446,1.838,14.136,2.933a49.2,49.2,0,0,1,8.922,2.709,146.382,146.382,0,0,0,39.8,11.311c4.763.663,9.517,1.316,14.294,1.869A61.121,61.121,0,0,1,331.7,33.637c7.885,3.044,15.991,3.4,24.764,1.87,5.793,1.911,12.263,5.322,18.479.113,3.406,2,6.5,4.828,10.8,2-1.158-2.871-2.337-5.791-3.665-9.08l1.792-3.392c4.677.569,8.131,2.324,9.736,7l-2.5,5.94c5.075,3,10.609,2.952,15.923,3.042,2.355.04,4.629.384,6.927.482,4.764.2,9.382,3.034,14.22,1.291,11.209,1.4,22.448,2.559,33.608,4.36,3.113.5,6.927.618,9.139,4.061l.263-.209c-2.126.034-4.11.481-5.4,2.359-1.026,1.5-1.73,3.87-.28,4.791,3.194,2.029,2.185,5.461,3.554,8.009l.222-.235-4.363,3.192,3.163,5.833,4.2-1.347c2.471,2.553-2.026,2.633-1.73,4.282l5.239,3.371c-.829.037-2.169-.38-1.106,1.343l.881-1.591,3.345.758c.758,2.187,1.548,4.472,2.4,6.941-.575,1.44-1.2,3-1.737,4.353-2.53.088-2.1-4.255-4.937-2.726,1.923,6.153,1.923,6.153,4.522,8.056,2.534-.146,2.537-2.956,4.254-4.281l2.8.045-.1-.1,1.008,3,3.509-.483c1.486,1.895-.156,2.677-.984,3.42-1.382,1.241-4.219-.206-4.988,2.685,2.1,3.322,5.648,1.662,8.33,2.84,2.039,1.47,3.168,5.446,6.355,2.707,1.632,1.768,2.865,3.587,4.514,4.774a28.834,28.834,0,0,1,6.114,5.615c1.548,1.96,4.832,2.376,7.166,3.806a56.99,56.99,0,0,1,5.508,4.278c.484,2.353-1.862,3.921.056,6.164,1.267,1.481,1.622,3.789,2.377,5.707,1.688,1.816,3-.7,4.546-.263,1.637.465,3.242,1.07,4.86,1.612l-.257-.259c.623,1.568,1.245,3.136,2.039,5.137-.774,1.448-1.671,3.123-2.722,5.084a72.937,72.937,0,0,0-5.806-4.843c-1.023-.693-2.449-.729-3.694-1.06a4.016,4.016,0,0,0-.355-.994c-.11-.164-.434-.178-.663-.26l1.24,1.017q-.048,5.444-.1,10.889l.237-.241c-3.321-.063-5.465,2.159-8.369,3.814L520,164.882c-.687,2.193-1.307,4.167-1.994,6.355l4.841,7.256-2.708,3.255-2.306-2.652c-.119-.043-.581-.272-.615-.215-1.954,3.249-4.557,6.4-1.173,10.956l-9.158,4.316c.022,1.34.043,2.649.074,4.505l5.008-.725,2.154,2.879c3.115.389,6.128-3.119,9.739-.4l-4.984,2.8a11.913,11.913,0,0,0,1.6,2.879,16.657,16.657,0,0,0,3.44,2.369c8.716,4.82,16.324,10.886,21.146,20.284l-3.752,2.369-4.917-.894c-1.405-.914-1.909-4.569-5.232-4.617-.4.494-.794.989-1.281,1.6l4.3,7.732-5.265-.45c-1.638,2.071.153,3.332.963,4.914l5.028,1.535c-1.742.992-4.012,1.477-4.621,2.815-1,2.19-2.687,1.235-3.973,1.7-1.758,3.7,2.366,6.711,1.183,10.522l-2.719,3.967,2.923,2.743-3.252,4.4,2.664,2.51c2.46.834,5.143-3.114,6.53,1.968l-10.921,1.107,4.855,4.269c-1.162,2.856-4.473-1.886-5.034,2.016,2,3.515,5.918,2.972,8.936,4.606-4.846,3.807-11.075,2.6-16.544,4.031,1.258,4.128,4.785,3.03,7.049,4.406,2.039,1.24,4.28,2.11,6.483,3.168-.1,1.235-.186,2.255-.313,3.8-2.684.238-5.343.5-8.008.7-2.347.176-4.7.277-8.161.474l16.8,7.87-11.189.8q-.008.505-.016,1.01l10.934,1.855c-3.565,4.443-8.172,1.936-11.91,2.858a68.846,68.846,0,0,1-11.057,1.888c-4.085.321-8.234-.01-12.346.1-3.745.1-7.478.427-11.218.645-3.874.226-7.817-2.135-11.645-.064l2.816,2.667c.508,4.276-4.484,4.329-4.886,8.443.824,3.093,5.635,6.169,2.406,10.741-3.444-1.071-2.171-5.062-4.725-7.406l-6.305-.1c-.085-.182-.766-.975-.6-1.4,1.793-4.685,3.2-9.619,8.981-13.239-10.59-1.07-19.137-2.409-27.418,2.479-.091,1.545-.192,3.256-.293,4.967l.215-.186L436.1,326.09l.3.252c-.122-.325-.185-.883-.375-.941a31.816,31.816,0,0,1-10.264-5.859l.254.265c-.569-1.754-1.825-1.789-3.248-1.524-7.271,1.355-14.545,2.69-22.5,4.157L396.91,325.6c-6.056-3.986-12.425-1.681-18.731-1.121-2.282.2-4.509,1.263-4.356,4.641-1.231-1.236-2.053-2.645-2.642-2.565-6.686.9-13.524-.251-20.157.863-7.958,1.336-16.2,1.061-23.9,3.757-.812.284-1.366,1.291-2.039,1.962-.438.35-2.226-.4-.987,1.317l.76-1.55c2.133,1.745,4.43.722,6.7.827,2.312.108,4.615,1.163,6.914,1.831.652.189,1.28.473,2.258.841-2.513,5.668-9.2,2.758-12.884,6.226,2.774,1.144,5.428,1.791,6.609,4.628a8.314,8.314,0,0,0,1.891.822,58.894,58.894,0,0,1,6.115.843,4.3,4.3,0,0,1,3.118,3.984c-1.984,1.621-2.507-1.436-3.945-1.459l-14.608.886-5,4.975-4.947-4.88c-5.7.081-11.9-.521-17.828.434C292.331,353.975,284.987,352.8,278,356c-.053,2.857-.1,5.648-.156,8.439l.251-.263c-3.9-1.233-3.969-5.489-6.075-8.423l-5.433.286c-2.063,2.837-1.052,5.078.518,7.272-1.4.08-2.391.317-2.488.115-1.4-2.9-2.972-5.62-5.69-7.122l-24.892-.4-4.622,4.57c1.957,1.717,4.366,3.029,2.948,6.149-3.251,2.584-6.352,1.326-9.383-.709-2.336-.119-1.914,2.738-4.17,3.663l-6.844-3.417c.35-1.18.4-2.326.956-3.041a6.121,6.121,0,0,1,6.4-2.228c1.476.268,2.75,2.511,4.486.756a3.8,3.8,0,0,0-2.831-4.052c-6.011-1.09-11.953-3.592-18.782-1.887a21.869,21.869,0,0,0-2.163,4.04c-1.731,5.455-5.5,6.533-10.95,5.361-.871-3.122-1.771-6.354-2.816-10.1L170,352.779l-4.832,3.69c-.031-1.865-.046-2.767-.068-4.174-7.3-1.4-14.757-.806-22.212-.805-7.9,0-15.8-.16-23.706-.413-7.494-.24-15.039.527-22.491-1.372-.3-1.343-.522-2.375-.749-3.407l2.348.071a4.029,4.029,0,0,0,.357.948c.106.156.413.168.629.245l-1.218-.937q-.455-.834-.91-1.668l-.967,1.607-3.648-3.247c5.107-4.835,11.547-2.142,17.076-4.012l-9.335-4.81c1.746-4.294,5.874-4.344,9.172-6.219a30.568,30.568,0,0,1-5.015-1.86c-2.087-1.217-3.984-2.8-6.057-4.293,1.021-.825,1.99-1.609,2.96-2.395a4.45,4.45,0,0,0-4.811-2.414c-.361,1.338-.784,2.911-1.312,4.874l-2.972.877c-2.853-.324-2.848-2.5-4.084-4.337L81.444,316.8c-.016-.967-.463-3.21.01-3.427,3.394-1.561,4.648-4.6,5.859-7.849.316-.848,1.343-1.392,2.043-2.075.238,3.45.475,6.9.742,10.772,4.9-.144,8.914-1.606,13-2.688.218-.058.325-.518.487-.793.081-1.994-.862-3.334-3.223-4.509-1.349-.19-3.391-.355-5.386-.8s-3.926-1.149-5.887-1.74l-3.322-7.7-5.057-1.538c.307-1.75.54-3.078.829-4.734-.669-.267-1.6-1.02-2.34-.874a68.609,68.609,0,0,1-18.639,1.342c-3.191.778-.148,4.157-2.963,5.221-1.377.52-1.878,3.347-2.776,5.13-3.957-.962-3.957-.962-3.808-4.865-2.741-4.509-7.75-2.349-11.367-4.835.545-1.025.976-1.834,1.421-2.67l5.417,1.968c.781-1.833,1.537-3.61,2.522-5.924,2.381-.178,5.182.1,7.619-.706,2.466-.815,4.573-2.7,7.738-4.678l-4.558-1.444.206.211c-4.512-4.978-7.932-6.332-14-5.53-4.076-1.972-4.485-8.252-10.016-8.793-1.853,2.617-4.848,3.666-8.24,3.277.032,2.524.869,4.929-2.437,4.972-.569-2.273-1.145-4.576-1.669-6.67-4.2-1.295-.773,2.592-3.337,3.189l-1.951.143.244.227-2.185-6.525-3.1,1.006L8.8,256.413c-1.388-4.16-1.566-8.2,1.379-11.735l-5.663-4.912c-.7-2.014-.226-3.126,1.14-3.849.888,3.36,3.108,4.611,6.275,4.363.335.5-.187,2.232,1.338,1.015l-1.575-.769c-.882-3.351-3.236-4.38-6.252-4.366-.345-1.735-1.431-2.207-2.975-1.976-.8.119-1.649,1.56-2.465-.236.86-3.282,3.939-1.7,5.882-2.61,1.811-.846,3.575-1.8,5.284-2.662-.077-4.3-.077-4.3-3.05-9.065,1.568.025,2.878-.056,4.167.1a15.032,15.032,0,0,1,2.627.769c3.058-1.831,3.247-4.234.024-7.958l5.986,1.3c.042-.74.486-2,.072-2.491a48.33,48.33,0,0,0-4.5-4.255c3.6-1.254,6.641-.686,8.231,2.988,3.022.042,1.3-2.006,1.811-2.723,1.3-1.816,2.033-4.363,5.266-4.065,1.77.164,3.617-1.057,6.015-1.846l-7.159-3.475c.38-2.474.688-4.489,1.031-6.725l-3.291-2.75c.569-.717,1.06-1.966,1.716-2.043,1.9-.223,3.9.273,5.79.011,1.548-.216,2.989-1.114,5.205-2l4.651.865,5.395-6.569,6.011,2.9,1.542-3.325-5.361-2.685-3.33,1.493-4.3-2.51.209.205c-.1-1.677.822-3.5-.986-5.123l-4.037.549c-1.492-2.41-3.087-4.986-4.682-7.562,2.69-2.133-1.993-4.465-.014-6.653C38.22,154.4,39,157.257,41.4,157.3l3.991-1.4c3.2,1.329,1.659,6.094,4.642,7.371l10.844-1.545c-.077-2.634-2.151-1.61-3.358-1.957-3.18-.916-2.683-3.486-2.754-6.237l-7.845-4.611-6.763-.109c-2.254-3.684-.965-7.168-.933-10.59l-.239.251c3.08,1.456,4.941,3.8,4.656,7.589L52.666,148c.22-.592.772-1.31.6-1.75-.963-2.483-2.1-4.9-3.274-7.558L45.5,141.681c-.056-3.461-.107-6.573-.158-9.682,1.462-2.046,3.062.134,4.548-.073,1.573-.219,3.131-.541,4.615-.8l4.48,5.469c3.561-1.6,1.848-5.483,3.892-7.349,1.72-1.57,3.258-3.352,4.855-5.016.882-2.938-1.779-4.054-3.009-5.884,1.293-1.01,3.315-1.443,2.257-3.979-3.062-2-6.569-1.067-9.893-1.568l.258.254,4.928-3.151,2.288-8.916-4.616-5.9,5.406-4.917c-.835-1.641-1.462-2.872-2.129-4.181.526-4.212,4.245-5.718,6.974-8.367l-4.24-1.677L70.177,72.1c1.441-3.2.7-6.788.762-10.272l-.273.253c1.742-.791,2.983-3,5.748-1.714l1.814,5.462c7.434,2.454,13.678-3.365,22.376-.282-3.976-4.892-5.754-8.218-4.984-12.3,1.114-1.892,2.662-1.912,4.98-.814l1.716,4.436c.19.184.411.561.7.649a15.427,15.427,0,0,0,1.931.325c2.115.351,4.23.708,7.224,1.21l-3.828-4.716c.882-3.585,3.023-1.038,4.81-.894l1.929-2.215L112.8,48.378l6.607-.851c3.089,1.332,4.721,5.619,9.632,4.309l5.389-5.935,6.392.1-.132-.116c1.2,3.439-1.623,4.955-3.016,7.143.639,1.628,2.006,1.506,3.286,1.592Z" transform="translate(556.907 5563.785) rotate(-173)"/></g></svg>