<svg xmlns="http://www.w3.org/2000/svg" width="394.071" height="150.091" viewBox="0 0 394.071 150.091"><defs><style>.a{opacity:0.6;}.b{fill:#fff;}</style></defs><g class="a" transform="translate(-21.382 -930.312)"><circle class="b" cx="1.537" cy="1.537" r="1.537" transform="translate(21.382 930.312)"/><circle class="b" cx="1.537" cy="1.537" r="1.537" transform="translate(51.459 930.312)"/><circle class="b" cx="1.537" cy="1.537" r="1.537" transform="translate(81.536 930.312)"/><circle class="b" cx="1.537" cy="1.537" r="1.537" transform="translate(111.613 930.312)"/><circle class="b" cx="1.537" cy="1.537" r="1.537" transform="translate(141.689 930.312)"/><circle class="b" cx="1.537" cy="1.537" r="1.537" transform="translate(171.766 930.312)"/><circle class="b" cx="1.537" cy="1.537" r="1.537" transform="translate(201.843 930.312)"/><circle class="b" cx="1.537" cy="1.537" r="1.537" transform="translate(231.92 930.312)"/><circle class="b" cx="1.537" cy="1.537" r="1.537" transform="translate(261.996 930.312)"/><circle class="b" cx="1.537" cy="1.537" r="1.537" transform="translate(292.073 930.312)"/><circle class="b" cx="1.537" cy="1.537" r="1.537" transform="translate(322.15 930.312)"/><circle class="b" cx="1.537" cy="1.537" r="1.537" transform="translate(352.226 930.312)"/><circle class="b" cx="1.537" cy="1.537" r="1.537" transform="translate(382.303 930.312)"/><circle class="b" cx="1.537" cy="1.537" r="1.537" transform="translate(412.38 930.312)"/><circle class="b" cx="1.537" cy="1.537" r="1.537" transform="translate(21.382 951.314)"/><circle class="b" cx="1.537" cy="1.537" r="1.537" transform="translate(51.459 951.314)"/><circle class="b" cx="1.537" cy="1.537" r="1.537" transform="translate(81.536 951.314)"/><circle class="b" cx="1.537" cy="1.537" r="1.537" transform="translate(111.613 951.314)"/><circle class="b" cx="1.537" cy="1.537" r="1.537" transform="translate(141.689 951.314)"/><circle class="b" cx="1.537" cy="1.537" r="1.537" transform="translate(171.766 951.314)"/><circle class="b" cx="1.537" cy="1.537" r="1.537" transform="translate(201.843 951.314)"/><circle class="b" cx="1.537" cy="1.537" r="1.537" transform="translate(231.92 951.314)"/><circle class="b" cx="1.537" cy="1.537" r="1.537" transform="translate(261.996 951.314)"/><circle class="b" cx="1.537" cy="1.537" r="1.537" transform="translate(292.073 951.314)"/><circle class="b" cx="1.537" cy="1.537" r="1.537" transform="translate(322.15 951.314)"/><circle class="b" cx="1.537" cy="1.537" r="1.537" transform="translate(352.226 951.314)"/><circle class="b" cx="1.537" cy="1.537" r="1.537" transform="translate(382.303 951.314)"/><circle class="b" cx="1.537" cy="1.537" r="1.537" transform="translate(412.38 951.314)"/><circle class="b" cx="1.537" cy="1.537" r="1.537" transform="translate(21.382 972.317)"/><circle class="b" cx="1.537" cy="1.537" r="1.537" transform="translate(51.459 972.317)"/><circle class="b" cx="1.537" cy="1.537" r="1.537" transform="translate(81.536 972.317)"/><circle class="b" cx="1.537" cy="1.537" r="1.537" transform="translate(111.613 972.317)"/><circle class="b" cx="1.537" cy="1.537" r="1.537" transform="translate(141.689 972.317)"/><circle class="b" cx="1.537" cy="1.537" r="1.537" transform="translate(171.766 972.317)"/><circle class="b" cx="1.537" cy="1.537" r="1.537" transform="translate(201.843 972.317)"/><circle class="b" cx="1.537" cy="1.537" r="1.537" transform="translate(231.92 972.317)"/><circle class="b" cx="1.537" cy="1.537" r="1.537" transform="translate(261.996 972.317)"/><circle class="b" cx="1.537" cy="1.537" r="1.537" transform="translate(292.073 972.317)"/><circle class="b" cx="1.537" cy="1.537" r="1.537" transform="translate(322.15 972.317)"/><circle class="b" cx="1.537" cy="1.537" r="1.537" transform="translate(352.226 972.317)"/><circle class="b" cx="1.537" cy="1.537" r="1.537" transform="translate(382.303 972.317)"/><circle class="b" cx="1.537" cy="1.537" r="1.537" transform="translate(412.38 972.317)"/><circle class="b" cx="1.537" cy="1.537" r="1.537" transform="translate(21.382 993.319)"/><circle class="b" cx="1.537" cy="1.537" r="1.537" transform="translate(51.459 993.319)"/><circle class="b" cx="1.537" cy="1.537" r="1.537" transform="translate(81.536 993.319)"/><circle class="b" cx="1.537" cy="1.537" r="1.537" transform="translate(111.613 993.319)"/><circle class="b" cx="1.537" cy="1.537" r="1.537" transform="translate(141.689 993.319)"/><circle class="b" cx="1.537" cy="1.537" r="1.537" transform="translate(171.766 993.319)"/><circle class="b" cx="1.537" cy="1.537" r="1.537" transform="translate(201.843 993.319)"/><circle class="b" cx="1.537" cy="1.537" r="1.537" transform="translate(231.92 993.319)"/><circle class="b" cx="1.537" cy="1.537" r="1.537" transform="translate(261.996 993.319)"/><circle class="b" cx="1.537" cy="1.537" r="1.537" transform="translate(292.073 993.319)"/><circle class="b" cx="1.537" cy="1.537" r="1.537" transform="translate(322.15 993.319)"/><circle class="b" cx="1.537" cy="1.537" r="1.537" transform="translate(352.226 993.319)"/><circle class="b" cx="1.537" cy="1.537" r="1.537" transform="translate(382.303 993.319)"/><circle class="b" cx="1.537" cy="1.537" r="1.537" transform="translate(412.38 993.319)"/><circle class="b" cx="1.537" cy="1.537" r="1.537" transform="translate(21.382 1014.322)"/><circle class="b" cx="1.537" cy="1.537" r="1.537" transform="translate(51.459 1014.322)"/><circle class="b" cx="1.537" cy="1.537" r="1.537" transform="translate(81.536 1014.322)"/><circle class="b" cx="1.537" cy="1.537" r="1.537" transform="translate(111.613 1014.322)"/><circle class="b" cx="1.537" cy="1.537" r="1.537" transform="translate(141.689 1014.322)"/><circle class="b" cx="1.537" cy="1.537" r="1.537" transform="translate(171.766 1014.322)"/><circle class="b" cx="1.537" cy="1.537" r="1.537" transform="translate(201.843 1014.322)"/><circle class="b" cx="1.537" cy="1.537" r="1.537" transform="translate(231.92 1014.322)"/><circle class="b" cx="1.537" cy="1.537" r="1.537" transform="translate(261.996 1014.322)"/><circle class="b" cx="1.537" cy="1.537" r="1.537" transform="translate(292.073 1014.322)"/><circle class="b" cx="1.537" cy="1.537" r="1.537" transform="translate(322.15 1014.322)"/><circle class="b" cx="1.537" cy="1.537" r="1.537" transform="translate(352.226 1014.322)"/><circle class="b" cx="1.537" cy="1.537" r="1.537" transform="translate(382.303 1014.322)"/><circle class="b" cx="1.537" cy="1.537" r="1.537" transform="translate(412.38 1014.322)"/><circle class="b" cx="1.537" cy="1.537" r="1.537" transform="translate(21.382 1035.324)"/><circle class="b" cx="1.537" cy="1.537" r="1.537" transform="translate(51.459 1035.324)"/><circle class="b" cx="1.537" cy="1.537" r="1.537" transform="translate(81.536 1035.324)"/><circle class="b" cx="1.537" cy="1.537" r="1.537" transform="translate(111.613 1035.324)"/><circle class="b" cx="1.537" cy="1.537" r="1.537" transform="translate(141.689 1035.324)"/><circle class="b" cx="1.537" cy="1.537" r="1.537" transform="translate(171.766 1035.324)"/><circle class="b" cx="1.537" cy="1.537" r="1.537" transform="translate(201.843 1035.324)"/><circle class="b" cx="1.537" cy="1.537" r="1.537" transform="translate(231.92 1035.324)"/><circle class="b" cx="1.537" cy="1.537" r="1.537" transform="translate(261.996 1035.324)"/><circle class="b" cx="1.537" cy="1.537" r="1.537" transform="translate(292.073 1035.324)"/><circle class="b" cx="1.537" cy="1.537" r="1.537" transform="translate(322.15 1035.324)"/><circle class="b" cx="1.537" cy="1.537" r="1.537" transform="translate(352.226 1035.324)"/><circle class="b" cx="1.537" cy="1.537" r="1.537" transform="translate(382.303 1035.324)"/><circle class="b" cx="1.537" cy="1.537" r="1.537" transform="translate(412.38 1035.324)"/><circle class="b" cx="1.537" cy="1.537" r="1.537" transform="translate(21.382 1056.327)"/><circle class="b" cx="1.537" cy="1.537" r="1.537" transform="translate(51.459 1056.327)"/><circle class="b" cx="1.537" cy="1.537" r="1.537" transform="translate(81.536 1056.327)"/><circle class="b" cx="1.537" cy="1.537" r="1.537" transform="translate(111.613 1056.327)"/><circle class="b" cx="1.537" cy="1.537" r="1.537" transform="translate(141.689 1056.327)"/><circle class="b" cx="1.537" cy="1.537" r="1.537" transform="translate(171.766 1056.327)"/><circle class="b" cx="1.537" cy="1.537" r="1.537" transform="translate(201.843 1056.327)"/><circle class="b" cx="1.537" cy="1.537" r="1.537" transform="translate(231.92 1056.327)"/><circle class="b" cx="1.537" cy="1.537" r="1.537" transform="translate(261.996 1056.327)"/><circle class="b" cx="1.537" cy="1.537" r="1.537" transform="translate(292.073 1056.327)"/><circle class="b" cx="1.537" cy="1.537" r="1.537" transform="translate(322.15 1056.327)"/><circle class="b" cx="1.537" cy="1.537" r="1.537" transform="translate(352.226 1056.327)"/><circle class="b" cx="1.537" cy="1.537" r="1.537" transform="translate(382.303 1056.327)"/><circle class="b" cx="1.537" cy="1.537" r="1.537" transform="translate(412.38 1056.327)"/><circle class="b" cx="1.537" cy="1.537" r="1.537" transform="translate(21.382 1077.329)"/><circle class="b" cx="1.537" cy="1.537" r="1.537" transform="translate(51.459 1077.329)"/><circle class="b" cx="1.537" cy="1.537" r="1.537" transform="translate(81.536 1077.329)"/><circle class="b" cx="1.537" cy="1.537" r="1.537" transform="translate(111.613 1077.329)"/><circle class="b" cx="1.537" cy="1.537" r="1.537" transform="translate(141.689 1077.329)"/><circle class="b" cx="1.537" cy="1.537" r="1.537" transform="translate(171.766 1077.329)"/><circle class="b" cx="1.537" cy="1.537" r="1.537" transform="translate(201.843 1077.329)"/><circle class="b" cx="1.537" cy="1.537" r="1.537" transform="translate(231.92 1077.329)"/><circle class="b" cx="1.537" cy="1.537" r="1.537" transform="translate(261.996 1077.329)"/><circle class="b" cx="1.537" cy="1.537" r="1.537" transform="translate(292.073 1077.329)"/><circle class="b" cx="1.537" cy="1.537" r="1.537" transform="translate(322.15 1077.329)"/><circle class="b" cx="1.537" cy="1.537" r="1.537" transform="translate(352.226 1077.329)"/><circle class="b" cx="1.537" cy="1.537" r="1.537" transform="translate(382.303 1077.329)"/><circle class="b" cx="1.537" cy="1.537" r="1.537" transform="translate(412.38 1077.329)"/></g></svg>