<svg xmlns="http://www.w3.org/2000/svg" width="650.765" height="120.647" viewBox="0 0 650.765 120.647"><defs><style>.a{opacity:0.421;}.b{fill:#fff;}</style></defs><g class="a" transform="translate(-715.235 -9432.353)"><g transform="translate(1027.853 8502.041)"><circle class="b" cx="1.235" cy="1.235" r="1.235" transform="translate(21.382 930.312)"/><circle class="b" cx="1.235" cy="1.235" r="1.235" transform="translate(45.559 930.312)"/><circle class="b" cx="1.235" cy="1.235" r="1.235" transform="translate(69.735 930.312)"/><circle class="b" cx="1.235" cy="1.235" r="1.235" transform="translate(93.912 930.312)"/><circle class="b" cx="1.235" cy="1.235" r="1.235" transform="translate(118.088 930.312)"/><circle class="b" cx="1.235" cy="1.235" r="1.235" transform="translate(142.265 930.312)"/><circle class="b" cx="1.235" cy="1.235" r="1.235" transform="translate(166.441 930.312)"/><circle class="b" cx="1.235" cy="1.235" r="1.235" transform="translate(190.618 930.312)"/><circle class="b" cx="1.235" cy="1.235" r="1.235" transform="translate(214.794 930.312)"/><circle class="b" cx="1.235" cy="1.235" r="1.235" transform="translate(238.971 930.312)"/><circle class="b" cx="1.235" cy="1.235" r="1.235" transform="translate(263.147 930.312)"/><circle class="b" cx="1.235" cy="1.235" r="1.235" transform="translate(287.324 930.312)"/><circle class="b" cx="1.235" cy="1.235" r="1.235" transform="translate(311.5 930.312)"/><circle class="b" cx="1.235" cy="1.235" r="1.235" transform="translate(335.676 930.312)"/><circle class="b" cx="1.235" cy="1.235" r="1.235" transform="translate(21.382 947.194)"/><circle class="b" cx="1.235" cy="1.235" r="1.235" transform="translate(45.559 947.194)"/><circle class="b" cx="1.235" cy="1.235" r="1.235" transform="translate(69.735 947.194)"/><circle class="b" cx="1.235" cy="1.235" r="1.235" transform="translate(93.912 947.194)"/><circle class="b" cx="1.235" cy="1.235" r="1.235" transform="translate(118.088 947.194)"/><circle class="b" cx="1.235" cy="1.235" r="1.235" transform="translate(142.265 947.194)"/><circle class="b" cx="1.235" cy="1.235" r="1.235" transform="translate(166.441 947.194)"/><circle class="b" cx="1.235" cy="1.235" r="1.235" transform="translate(190.618 947.194)"/><circle class="b" cx="1.235" cy="1.235" r="1.235" transform="translate(214.794 947.194)"/><circle class="b" cx="1.235" cy="1.235" r="1.235" transform="translate(238.971 947.194)"/><circle class="b" cx="1.235" cy="1.235" r="1.235" transform="translate(263.147 947.194)"/><circle class="b" cx="1.235" cy="1.235" r="1.235" transform="translate(287.324 947.194)"/><circle class="b" cx="1.235" cy="1.235" r="1.235" transform="translate(311.5 947.194)"/><circle class="b" cx="1.235" cy="1.235" r="1.235" transform="translate(335.676 947.194)"/><circle class="b" cx="1.235" cy="1.235" r="1.235" transform="translate(21.382 964.077)"/><circle class="b" cx="1.235" cy="1.235" r="1.235" transform="translate(45.559 964.077)"/><circle class="b" cx="1.235" cy="1.235" r="1.235" transform="translate(69.735 964.077)"/><circle class="b" cx="1.235" cy="1.235" r="1.235" transform="translate(93.912 964.077)"/><circle class="b" cx="1.235" cy="1.235" r="1.235" transform="translate(118.088 964.077)"/><circle class="b" cx="1.235" cy="1.235" r="1.235" transform="translate(142.265 964.077)"/><circle class="b" cx="1.235" cy="1.235" r="1.235" transform="translate(166.441 964.077)"/><circle class="b" cx="1.235" cy="1.235" r="1.235" transform="translate(190.618 964.077)"/><circle class="b" cx="1.235" cy="1.235" r="1.235" transform="translate(214.794 964.077)"/><circle class="b" cx="1.235" cy="1.235" r="1.235" transform="translate(238.971 964.077)"/><circle class="b" cx="1.235" cy="1.235" r="1.235" transform="translate(263.147 964.077)"/><circle class="b" cx="1.235" cy="1.235" r="1.235" transform="translate(287.324 964.077)"/><circle class="b" cx="1.235" cy="1.235" r="1.235" transform="translate(311.5 964.077)"/><circle class="b" cx="1.235" cy="1.235" r="1.235" transform="translate(335.676 964.077)"/><circle class="b" cx="1.235" cy="1.235" r="1.235" transform="translate(21.382 980.959)"/><circle class="b" cx="1.235" cy="1.235" r="1.235" transform="translate(45.559 980.959)"/><circle class="b" cx="1.235" cy="1.235" r="1.235" transform="translate(69.735 980.959)"/><circle class="b" cx="1.235" cy="1.235" r="1.235" transform="translate(93.912 980.959)"/><circle class="b" cx="1.235" cy="1.235" r="1.235" transform="translate(118.088 980.959)"/><circle class="b" cx="1.235" cy="1.235" r="1.235" transform="translate(142.265 980.959)"/><circle class="b" cx="1.235" cy="1.235" r="1.235" transform="translate(166.441 980.959)"/><circle class="b" cx="1.235" cy="1.235" r="1.235" transform="translate(190.618 980.959)"/><circle class="b" cx="1.235" cy="1.235" r="1.235" transform="translate(214.794 980.959)"/><circle class="b" cx="1.235" cy="1.235" r="1.235" transform="translate(238.971 980.959)"/><circle class="b" cx="1.235" cy="1.235" r="1.235" transform="translate(263.147 980.959)"/><circle class="b" cx="1.235" cy="1.235" r="1.235" transform="translate(287.324 980.959)"/><circle class="b" cx="1.235" cy="1.235" r="1.235" transform="translate(311.5 980.959)"/><circle class="b" cx="1.235" cy="1.235" r="1.235" transform="translate(335.676 980.959)"/><circle class="b" cx="1.235" cy="1.235" r="1.235" transform="translate(21.382 997.841)"/><circle class="b" cx="1.235" cy="1.235" r="1.235" transform="translate(45.559 997.841)"/><circle class="b" cx="1.235" cy="1.235" r="1.235" transform="translate(69.735 997.841)"/><circle class="b" cx="1.235" cy="1.235" r="1.235" transform="translate(93.912 997.841)"/><circle class="b" cx="1.235" cy="1.235" r="1.235" transform="translate(118.088 997.841)"/><circle class="b" cx="1.235" cy="1.235" r="1.235" transform="translate(142.265 997.841)"/><circle class="b" cx="1.235" cy="1.235" r="1.235" transform="translate(166.441 997.841)"/><circle class="b" cx="1.235" cy="1.235" r="1.235" transform="translate(190.618 997.841)"/><circle class="b" cx="1.235" cy="1.235" r="1.235" transform="translate(214.794 997.841)"/><circle class="b" cx="1.235" cy="1.235" r="1.235" transform="translate(238.971 997.841)"/><circle class="b" cx="1.235" cy="1.235" r="1.235" transform="translate(263.147 997.841)"/><circle class="b" cx="1.235" cy="1.235" r="1.235" transform="translate(287.324 997.841)"/><circle class="b" cx="1.235" cy="1.235" r="1.235" transform="translate(311.5 997.841)"/><circle class="b" cx="1.235" cy="1.235" r="1.235" transform="translate(335.676 997.841)"/><circle class="b" cx="1.235" cy="1.235" r="1.235" transform="translate(21.382 1014.724)"/><circle class="b" cx="1.235" cy="1.235" r="1.235" transform="translate(45.559 1014.724)"/><circle class="b" cx="1.235" cy="1.235" r="1.235" transform="translate(69.735 1014.724)"/><circle class="b" cx="1.235" cy="1.235" r="1.235" transform="translate(93.912 1014.724)"/><circle class="b" cx="1.235" cy="1.235" r="1.235" transform="translate(118.088 1014.724)"/><circle class="b" cx="1.235" cy="1.235" r="1.235" transform="translate(142.265 1014.724)"/><circle class="b" cx="1.235" cy="1.235" r="1.235" transform="translate(166.441 1014.724)"/><circle class="b" cx="1.235" cy="1.235" r="1.235" transform="translate(190.618 1014.724)"/><circle class="b" cx="1.235" cy="1.235" r="1.235" transform="translate(214.794 1014.724)"/><circle class="b" cx="1.235" cy="1.235" r="1.235" transform="translate(238.971 1014.724)"/><circle class="b" cx="1.235" cy="1.235" r="1.235" transform="translate(263.147 1014.724)"/><circle class="b" cx="1.235" cy="1.235" r="1.235" transform="translate(287.324 1014.724)"/><circle class="b" cx="1.235" cy="1.235" r="1.235" transform="translate(311.5 1014.724)"/><circle class="b" cx="1.235" cy="1.235" r="1.235" transform="translate(335.676 1014.724)"/><circle class="b" cx="1.235" cy="1.235" r="1.235" transform="translate(21.382 1031.606)"/><circle class="b" cx="1.235" cy="1.235" r="1.235" transform="translate(45.559 1031.606)"/><circle class="b" cx="1.235" cy="1.235" r="1.235" transform="translate(69.735 1031.606)"/><circle class="b" cx="1.235" cy="1.235" r="1.235" transform="translate(93.912 1031.606)"/><circle class="b" cx="1.235" cy="1.235" r="1.235" transform="translate(118.088 1031.606)"/><circle class="b" cx="1.235" cy="1.235" r="1.235" transform="translate(142.265 1031.606)"/><circle class="b" cx="1.235" cy="1.235" r="1.235" transform="translate(166.441 1031.606)"/><circle class="b" cx="1.235" cy="1.235" r="1.235" transform="translate(190.618 1031.606)"/><circle class="b" cx="1.235" cy="1.235" r="1.235" transform="translate(214.794 1031.606)"/><circle class="b" cx="1.235" cy="1.235" r="1.235" transform="translate(238.971 1031.606)"/><circle class="b" cx="1.235" cy="1.235" r="1.235" transform="translate(263.147 1031.606)"/><circle class="b" cx="1.235" cy="1.235" r="1.235" transform="translate(287.324 1031.606)"/><circle class="b" cx="1.235" cy="1.235" r="1.235" transform="translate(311.5 1031.606)"/><circle class="b" cx="1.235" cy="1.235" r="1.235" transform="translate(335.676 1031.606)"/><circle class="b" cx="1.235" cy="1.235" r="1.235" transform="translate(21.382 1048.488)"/><circle class="b" cx="1.235" cy="1.235" r="1.235" transform="translate(45.559 1048.488)"/><circle class="b" cx="1.235" cy="1.235" r="1.235" transform="translate(69.735 1048.488)"/><circle class="b" cx="1.235" cy="1.235" r="1.235" transform="translate(93.912 1048.488)"/><circle class="b" cx="1.235" cy="1.235" r="1.235" transform="translate(118.088 1048.488)"/><circle class="b" cx="1.235" cy="1.235" r="1.235" transform="translate(142.265 1048.488)"/><circle class="b" cx="1.235" cy="1.235" r="1.235" transform="translate(166.441 1048.488)"/><circle class="b" cx="1.235" cy="1.235" r="1.235" transform="translate(190.618 1048.488)"/><circle class="b" cx="1.235" cy="1.235" r="1.235" transform="translate(214.794 1048.488)"/><circle class="b" cx="1.235" cy="1.235" r="1.235" transform="translate(238.971 1048.488)"/><circle class="b" cx="1.235" cy="1.235" r="1.235" transform="translate(263.147 1048.488)"/><circle class="b" cx="1.235" cy="1.235" r="1.235" transform="translate(287.324 1048.488)"/><circle class="b" cx="1.235" cy="1.235" r="1.235" transform="translate(311.5 1048.488)"/><circle class="b" cx="1.235" cy="1.235" r="1.235" transform="translate(335.676 1048.488)"/></g><g transform="translate(693.853 8502.041)"><circle class="b" cx="1.235" cy="1.235" r="1.235" transform="translate(21.382 930.312)"/><circle class="b" cx="1.235" cy="1.235" r="1.235" transform="translate(45.559 930.312)"/><circle class="b" cx="1.235" cy="1.235" r="1.235" transform="translate(69.735 930.312)"/><circle class="b" cx="1.235" cy="1.235" r="1.235" transform="translate(93.912 930.312)"/><circle class="b" cx="1.235" cy="1.235" r="1.235" transform="translate(118.088 930.312)"/><circle class="b" cx="1.235" cy="1.235" r="1.235" transform="translate(142.265 930.312)"/><circle class="b" cx="1.235" cy="1.235" r="1.235" transform="translate(166.441 930.312)"/><circle class="b" cx="1.235" cy="1.235" r="1.235" transform="translate(190.618 930.312)"/><circle class="b" cx="1.235" cy="1.235" r="1.235" transform="translate(214.794 930.312)"/><circle class="b" cx="1.235" cy="1.235" r="1.235" transform="translate(238.971 930.312)"/><circle class="b" cx="1.235" cy="1.235" r="1.235" transform="translate(263.147 930.312)"/><circle class="b" cx="1.235" cy="1.235" r="1.235" transform="translate(287.324 930.312)"/><circle class="b" cx="1.235" cy="1.235" r="1.235" transform="translate(311.5 930.312)"/><circle class="b" cx="1.235" cy="1.235" r="1.235" transform="translate(335.676 930.312)"/><circle class="b" cx="1.235" cy="1.235" r="1.235" transform="translate(21.382 947.194)"/><circle class="b" cx="1.235" cy="1.235" r="1.235" transform="translate(45.559 947.194)"/><circle class="b" cx="1.235" cy="1.235" r="1.235" transform="translate(69.735 947.194)"/><circle class="b" cx="1.235" cy="1.235" r="1.235" transform="translate(93.912 947.194)"/><circle class="b" cx="1.235" cy="1.235" r="1.235" transform="translate(118.088 947.194)"/><circle class="b" cx="1.235" cy="1.235" r="1.235" transform="translate(142.265 947.194)"/><circle class="b" cx="1.235" cy="1.235" r="1.235" transform="translate(166.441 947.194)"/><circle class="b" cx="1.235" cy="1.235" r="1.235" transform="translate(190.618 947.194)"/><circle class="b" cx="1.235" cy="1.235" r="1.235" transform="translate(214.794 947.194)"/><circle class="b" cx="1.235" cy="1.235" r="1.235" transform="translate(238.971 947.194)"/><circle class="b" cx="1.235" cy="1.235" r="1.235" transform="translate(263.147 947.194)"/><circle class="b" cx="1.235" cy="1.235" r="1.235" transform="translate(287.324 947.194)"/><circle class="b" cx="1.235" cy="1.235" r="1.235" transform="translate(311.5 947.194)"/><circle class="b" cx="1.235" cy="1.235" r="1.235" transform="translate(335.676 947.194)"/><circle class="b" cx="1.235" cy="1.235" r="1.235" transform="translate(21.382 964.077)"/><circle class="b" cx="1.235" cy="1.235" r="1.235" transform="translate(45.559 964.077)"/><circle class="b" cx="1.235" cy="1.235" r="1.235" transform="translate(69.735 964.077)"/><circle class="b" cx="1.235" cy="1.235" r="1.235" transform="translate(93.912 964.077)"/><circle class="b" cx="1.235" cy="1.235" r="1.235" transform="translate(118.088 964.077)"/><circle class="b" cx="1.235" cy="1.235" r="1.235" transform="translate(142.265 964.077)"/><circle class="b" cx="1.235" cy="1.235" r="1.235" transform="translate(166.441 964.077)"/><circle class="b" cx="1.235" cy="1.235" r="1.235" transform="translate(190.618 964.077)"/><circle class="b" cx="1.235" cy="1.235" r="1.235" transform="translate(214.794 964.077)"/><circle class="b" cx="1.235" cy="1.235" r="1.235" transform="translate(238.971 964.077)"/><circle class="b" cx="1.235" cy="1.235" r="1.235" transform="translate(263.147 964.077)"/><circle class="b" cx="1.235" cy="1.235" r="1.235" transform="translate(287.324 964.077)"/><circle class="b" cx="1.235" cy="1.235" r="1.235" transform="translate(311.5 964.077)"/><circle class="b" cx="1.235" cy="1.235" r="1.235" transform="translate(335.676 964.077)"/><circle class="b" cx="1.235" cy="1.235" r="1.235" transform="translate(21.382 980.959)"/><circle class="b" cx="1.235" cy="1.235" r="1.235" transform="translate(45.559 980.959)"/><circle class="b" cx="1.235" cy="1.235" r="1.235" transform="translate(69.735 980.959)"/><circle class="b" cx="1.235" cy="1.235" r="1.235" transform="translate(93.912 980.959)"/><circle class="b" cx="1.235" cy="1.235" r="1.235" transform="translate(118.088 980.959)"/><circle class="b" cx="1.235" cy="1.235" r="1.235" transform="translate(142.265 980.959)"/><circle class="b" cx="1.235" cy="1.235" r="1.235" transform="translate(166.441 980.959)"/><circle class="b" cx="1.235" cy="1.235" r="1.235" transform="translate(190.618 980.959)"/><circle class="b" cx="1.235" cy="1.235" r="1.235" transform="translate(214.794 980.959)"/><circle class="b" cx="1.235" cy="1.235" r="1.235" transform="translate(238.971 980.959)"/><circle class="b" cx="1.235" cy="1.235" r="1.235" transform="translate(263.147 980.959)"/><circle class="b" cx="1.235" cy="1.235" r="1.235" transform="translate(287.324 980.959)"/><circle class="b" cx="1.235" cy="1.235" r="1.235" transform="translate(311.5 980.959)"/><circle class="b" cx="1.235" cy="1.235" r="1.235" transform="translate(335.676 980.959)"/><circle class="b" cx="1.235" cy="1.235" r="1.235" transform="translate(21.382 997.841)"/><circle class="b" cx="1.235" cy="1.235" r="1.235" transform="translate(45.559 997.841)"/><circle class="b" cx="1.235" cy="1.235" r="1.235" transform="translate(69.735 997.841)"/><circle class="b" cx="1.235" cy="1.235" r="1.235" transform="translate(93.912 997.841)"/><circle class="b" cx="1.235" cy="1.235" r="1.235" transform="translate(118.088 997.841)"/><circle class="b" cx="1.235" cy="1.235" r="1.235" transform="translate(142.265 997.841)"/><circle class="b" cx="1.235" cy="1.235" r="1.235" transform="translate(166.441 997.841)"/><circle class="b" cx="1.235" cy="1.235" r="1.235" transform="translate(190.618 997.841)"/><circle class="b" cx="1.235" cy="1.235" r="1.235" transform="translate(214.794 997.841)"/><circle class="b" cx="1.235" cy="1.235" r="1.235" transform="translate(238.971 997.841)"/><circle class="b" cx="1.235" cy="1.235" r="1.235" transform="translate(263.147 997.841)"/><circle class="b" cx="1.235" cy="1.235" r="1.235" transform="translate(287.324 997.841)"/><circle class="b" cx="1.235" cy="1.235" r="1.235" transform="translate(311.5 997.841)"/><circle class="b" cx="1.235" cy="1.235" r="1.235" transform="translate(335.676 997.841)"/><circle class="b" cx="1.235" cy="1.235" r="1.235" transform="translate(21.382 1014.724)"/><circle class="b" cx="1.235" cy="1.235" r="1.235" transform="translate(45.559 1014.724)"/><circle class="b" cx="1.235" cy="1.235" r="1.235" transform="translate(69.735 1014.724)"/><circle class="b" cx="1.235" cy="1.235" r="1.235" transform="translate(93.912 1014.724)"/><circle class="b" cx="1.235" cy="1.235" r="1.235" transform="translate(118.088 1014.724)"/><circle class="b" cx="1.235" cy="1.235" r="1.235" transform="translate(142.265 1014.724)"/><circle class="b" cx="1.235" cy="1.235" r="1.235" transform="translate(166.441 1014.724)"/><circle class="b" cx="1.235" cy="1.235" r="1.235" transform="translate(190.618 1014.724)"/><circle class="b" cx="1.235" cy="1.235" r="1.235" transform="translate(214.794 1014.724)"/><circle class="b" cx="1.235" cy="1.235" r="1.235" transform="translate(238.971 1014.724)"/><circle class="b" cx="1.235" cy="1.235" r="1.235" transform="translate(263.147 1014.724)"/><circle class="b" cx="1.235" cy="1.235" r="1.235" transform="translate(287.324 1014.724)"/><circle class="b" cx="1.235" cy="1.235" r="1.235" transform="translate(311.5 1014.724)"/><circle class="b" cx="1.235" cy="1.235" r="1.235" transform="translate(335.676 1014.724)"/><circle class="b" cx="1.235" cy="1.235" r="1.235" transform="translate(21.382 1031.606)"/><circle class="b" cx="1.235" cy="1.235" r="1.235" transform="translate(45.559 1031.606)"/><circle class="b" cx="1.235" cy="1.235" r="1.235" transform="translate(69.735 1031.606)"/><circle class="b" cx="1.235" cy="1.235" r="1.235" transform="translate(93.912 1031.606)"/><circle class="b" cx="1.235" cy="1.235" r="1.235" transform="translate(118.088 1031.606)"/><circle class="b" cx="1.235" cy="1.235" r="1.235" transform="translate(142.265 1031.606)"/><circle class="b" cx="1.235" cy="1.235" r="1.235" transform="translate(166.441 1031.606)"/><circle class="b" cx="1.235" cy="1.235" r="1.235" transform="translate(190.618 1031.606)"/><circle class="b" cx="1.235" cy="1.235" r="1.235" transform="translate(214.794 1031.606)"/><circle class="b" cx="1.235" cy="1.235" r="1.235" transform="translate(238.971 1031.606)"/><circle class="b" cx="1.235" cy="1.235" r="1.235" transform="translate(263.147 1031.606)"/><circle class="b" cx="1.235" cy="1.235" r="1.235" transform="translate(287.324 1031.606)"/><circle class="b" cx="1.235" cy="1.235" r="1.235" transform="translate(311.5 1031.606)"/><circle class="b" cx="1.235" cy="1.235" r="1.235" transform="translate(335.676 1031.606)"/><circle class="b" cx="1.235" cy="1.235" r="1.235" transform="translate(21.382 1048.488)"/><circle class="b" cx="1.235" cy="1.235" r="1.235" transform="translate(45.559 1048.488)"/><circle class="b" cx="1.235" cy="1.235" r="1.235" transform="translate(69.735 1048.488)"/><circle class="b" cx="1.235" cy="1.235" r="1.235" transform="translate(93.912 1048.488)"/><circle class="b" cx="1.235" cy="1.235" r="1.235" transform="translate(118.088 1048.488)"/><circle class="b" cx="1.235" cy="1.235" r="1.235" transform="translate(142.265 1048.488)"/><circle class="b" cx="1.235" cy="1.235" r="1.235" transform="translate(166.441 1048.488)"/><circle class="b" cx="1.235" cy="1.235" r="1.235" transform="translate(190.618 1048.488)"/><circle class="b" cx="1.235" cy="1.235" r="1.235" transform="translate(214.794 1048.488)"/><circle class="b" cx="1.235" cy="1.235" r="1.235" transform="translate(238.971 1048.488)"/><circle class="b" cx="1.235" cy="1.235" r="1.235" transform="translate(263.147 1048.488)"/><circle class="b" cx="1.235" cy="1.235" r="1.235" transform="translate(287.324 1048.488)"/><circle class="b" cx="1.235" cy="1.235" r="1.235" transform="translate(311.5 1048.488)"/><circle class="b" cx="1.235" cy="1.235" r="1.235" transform="translate(335.676 1048.488)"/></g></g></svg>