<svg xmlns="http://www.w3.org/2000/svg" width="44.326" height="44.326" viewBox="0 0 44.326 44.326"><defs><style>.a{fill:#fff;}</style></defs><g transform="translate(0 0)"><path class="a" d="M73.3,974.049a22.163,22.163,0,1,0,22.162,22.162A22.189,22.189,0,0,0,73.3,974.049Zm0,41.79a19.627,19.627,0,1,1,19.626-19.627A19.649,19.649,0,0,1,73.3,1015.839Z" transform="translate(-51.138 -974.049)"/><path class="a" d="M9.837,15.034h0c-.051,0-5.141-.036-6.682-.2-.083-.019-.184-.034-.3-.05a2.78,2.78,0,0,1-1.87-.872A5.08,5.08,0,0,1,.2,11.788,33.631,33.631,0,0,1,0,8.337V6.731A34.778,34.778,0,0,1,.2,3.246a4.619,4.619,0,0,1,.78-2.118A2.7,2.7,0,0,1,2.892.244h0l.055,0C5.666.037,9.8,0,9.837,0s4.171.037,6.886.239l.093.008a2.525,2.525,0,0,1,1.874.881,5.08,5.08,0,0,1,.78,2.118,34.75,34.75,0,0,1,.2,3.485V8.337a34.551,34.551,0,0,1-.2,3.451,5.082,5.082,0,0,1-.78,2.118,2.7,2.7,0,0,1-1.908.883h0l-.055,0C14.007,15.031,9.878,15.034,9.837,15.034ZM7.462,4.066V11.48l6.445-3.622Z" transform="translate(12.148 14.646)"/></g></svg>