<svg xmlns="http://www.w3.org/2000/svg" width="273.275" height="55.326" viewBox="0 0 273.275 55.326"><defs><style>.a{fill:#fff;}</style></defs><g transform="translate(-1679.177 -985.638)"><path class="a" d="M1702.891,985.724c-.6-.076-1.192-.017-1.789-.037a.368.368,0,0,0-.269.131c-.165-.158-.37-.088-.557-.088q-6.4-.012-12.794-.015l-.066-.076h15.549a.233.233,0,0,1,0,.077A.118.118,0,0,1,1702.891,985.724Z" transform="translate(3.092 0)"/><path class="a" d="M1698.723,985.715a.24.24,0,0,0,0-.077h7.37a.383.383,0,0,0-.008.077l-3.944.033Z" transform="translate(7.334 0)"/><path class="a" d="M1867.116,1011.723c1.042-1.4,2.063-2.76,3.081-4.126q5.951-7.983,11.895-15.975a2.149,2.149,0,0,1,1.971-.979c1.316.048,2.636.008,3.954.014a1.547,1.547,0,0,1,1.682,1.676q.007,13.19,0,26.382a1.548,1.548,0,0,1-1.686,1.672q-2.313.01-4.628,0a1.527,1.527,0,0,1-1.668-1.677q0-6.706,0-13.414v-.491c-.2.059-.253.213-.337.326q-5.471,7.226-10.928,14.46a1.827,1.827,0,0,1-1.6.8q-1.954-.033-3.908,0a1.839,1.839,0,0,1-1.6-.809q-5.442-7.189-10.9-14.366c-.1-.129-.2-.256-.378-.485v13.8c0,1.28-.578,1.854-1.868,1.854-1.469,0-2.936,0-4.4,0a1.545,1.545,0,0,1-1.719-1.719q0-13.147,0-26.291a1.545,1.545,0,0,1,1.717-1.722c1.511,0,3.025.014,4.537-.008a1.823,1.823,0,0,1,1.6.8q7.431,9.933,14.876,19.853C1866.893,1011.437,1866.994,1011.563,1867.116,1011.723Z" transform="translate(61.877 1.877)"/><path class="a" d="M1746.89,1005.471q0-6.863,0-13.727c0-.734.339-1.093,1.056-1.092q11.793,0,23.586.022a11.875,11.875,0,0,1,4.89.99,5.769,5.769,0,0,1,3.618,5.416,24.1,24.1,0,0,1-.077,4.3,5.214,5.214,0,0,1-1.62,3.168c-.2.183-.194.255.026.417a4.919,4.919,0,0,1,2.032,4.009c.04,1.643.055,3.291,0,4.933a5.78,5.78,0,0,1-3.247,5.207,12.434,12.434,0,0,1-5.907,1.272q-11.636.029-23.272.014c-.747,0-1.084-.353-1.085-1.111Q1746.889,1012.379,1746.89,1005.471Zm7.169.048c0,2.8.01,5.592-.01,8.388,0,.417.114.511.519.51,5.271-.014,10.543-.008,15.814-.011.374,0,.749-.016,1.121-.051,1.257-.117,1.76-.656,1.774-1.906.01-.942,0-1.884,0-2.826a1.267,1.267,0,0,0-1.146-1.458,6.622,6.622,0,0,0-1.647-.168h-12.669c-.623,0-.653-.032-.654-.664q0-2.288,0-4.575c0-.721.034-.755.76-.755q6.358,0,12.715,0a6.314,6.314,0,0,0,1.429-.114c.622-.147.847-.395.854-1.021.012-1.016.011-2.033,0-3.049-.005-.659-.223-.9-.872-1.051a6.546,6.546,0,0,0-1.518-.116q-8.021,0-16.039-.011c-.36,0-.443.1-.44.449C1754.067,999.9,1754.06,1002.709,1754.06,1005.52Z" transform="translate(25.41 1.882)"/><path class="a" d="M1798.413,990.656h9.391a13.977,13.977,0,0,1,5.024.8,6.554,6.554,0,0,1,4.5,6.336c.041,5.159.069,10.32-.012,15.479a6.53,6.53,0,0,1-4.351,6.268.528.528,0,0,1-.792-.276c-.858-1.521-1.74-3.031-2.627-4.537-.2-.338-.242-.58.15-.809a.993.993,0,0,0,.475-.824c.017-.238.033-.477.033-.716q0-6.863,0-13.729c0-1.374-.466-1.872-1.857-1.972-.283-.021-.569-.023-.854-.025h-18.11a5.191,5.191,0,0,0-1.687.185,1.275,1.275,0,0,0-1.036,1.379q-.008,7.293,0,14.582c0,.927.52,1.417,1.622,1.547a10.89,10.89,0,0,0,1.255.066q8.516.006,17.031-.01a1.069,1.069,0,0,1,1.092.617c1.8,3.2,3.638,6.384,5.463,9.572a3.579,3.579,0,0,0,.227.387.972.972,0,0,1,.133,1.126,1.024,1.024,0,0,1-1.034.48c-1.739-.01-3.475-.017-5.214,0a1.186,1.186,0,0,1-1.176-.711c-.905-1.7-1.844-3.382-2.753-5.082a.638.638,0,0,0-.657-.389q-6.583.016-13.167.007a15.889,15.889,0,0,1-5.05-.668,6.715,6.715,0,0,1-4.929-6.764q-.025-7.315,0-14.628c.007-3.944,2.044-6.457,5.912-7.324a16.86,16.86,0,0,1,3.743-.38Q1793.785,990.662,1798.413,990.656Z" transform="translate(37.645 1.882)"/><path class="a" d="M1845.413,1002.736q0,5.048,0,10.1a9.937,9.937,0,0,1-.483,3.354,5.924,5.924,0,0,1-4.467,3.821,13.6,13.6,0,0,1-3.47.4q-9.594,0-19.189-.014a13.072,13.072,0,0,1-4.536-.762,6.663,6.663,0,0,1-4.6-6.645c-.033-7.089-.013-14.179-.011-21.268a.953.953,0,0,1,1.09-1.063q2.472-.006,4.944,0c.8,0,1.133.334,1.133,1.153,0,6.9.012,13.79-.012,20.685-.006,1.14.375,1.668,1.691,1.858a7.6,7.6,0,0,0,1.076.063q8.47.006,16.942,0a6.077,6.077,0,0,0,1.428-.132,1.412,1.412,0,0,0,1.3-1.632q0-5.159,0-10.32,0-5.182,0-10.365c0-1.039.27-1.312,1.29-1.312q2.337,0,4.675,0c.889,0,1.191.3,1.191,1.177Q1845.415,997.283,1845.413,1002.736Z" transform="translate(48.588 1.882)"/><path class="a" d="M1736.9,998.852c-1.027,1.9-2.012,3.727-3,5.552q-4.119,7.625-8.232,15.256a1.247,1.247,0,0,1-1.242.754c-1.781-.023-3.566-.05-5.346.007a1.021,1.021,0,0,1-.957-1.646q7.969-13.689,15.879-27.412a1.243,1.243,0,0,1,1.223-.717c1.153.03,2.307.019,3.46,0a1.1,1.1,0,0,1,1.054.612q7.985,13.809,15.978,27.614a.941.941,0,0,1-.87,1.528c-1.871.01-3.744-.007-5.616.008a1.166,1.166,0,0,1-1.1-.762q-5.471-10.156-10.957-20.3C1737.106,999.2,1737.025,999.066,1736.9,998.852Z" transform="translate(14.542 1.879)"/><path class="a" d="M1700.832,985.694l3.416.033a2.279,2.279,0,0,0,.051.351q.54,1.772,1.091,3.54,1.432,4.648,2.865,9.3c.043.137.043.348.2.371s.214-.179.283-.3c1.021-1.784,2.026-3.576,3.061-5.351.154-.266.2-.638.567-.756q1.395,2.4,2.79,4.793c1.278,2.207,2.55,4.419,3.818,6.616-.055.142-.159.089-.237.089q-11.247,0-22.492,0c-.059,0-.12-.01-.179-.014-.708-1.265-1.436-2.521-2.118-3.8a6.515,6.515,0,0,1-.846-1.646c.945-1.642,1.885-3.287,2.837-4.925q2.405-4.144,4.82-8.285A.116.116,0,0,0,1700.832,985.694Z" transform="translate(5.225 0.021)"/><path class="a" d="M1717.994,1000.665q-1.9,3.3-3.793,6.6-3.46,5.993-6.92,11.987a.737.737,0,0,1-.741.426c-2.065-.015-4.13-.008-6.2-.005-.23,0-.411-.007-.554-.259-1.155-2.005-2.328-4-3.495-6a.982.982,0,0,1-.063-.165c.128-.235.25-.473.384-.705l3.127-5.412q1.762-3.064,3.521-6.128a.752.752,0,0,1,.742-.433c4.505.016,9.012.01,13.518.012C1717.681,1000.585,1717.856,1000.53,1717.994,1000.665Z" transform="translate(6.4 5.605)"/><path class="a" d="M1844.126,1005.554v13.64c0,.906-.3,1.208-1.209,1.209q-2.406,0-4.809,0c-.8,0-1.14-.34-1.14-1.154q0-13.706,0-27.412c0-.869.32-1.183,1.2-1.184q2.405,0,4.808,0c.847,0,1.152.314,1.152,1.172Z" transform="translate(59.214 1.881)"/><path class="a" d="M1779.953,1005.528v13.639c0,.946-.286,1.235-1.224,1.236q-2.358,0-4.717,0c-.891,0-1.2-.3-1.2-1.175v-27.41c0-.858.307-1.165,1.159-1.165q2.426,0,4.852,0c.823,0,1.129.314,1.13,1.147Z" transform="translate(35.138 1.881)"/><path class="a" d="M1686.621,1016.153q-.906-1.541-1.815-3.082a.349.349,0,0,1,0-.407q3.35-5.728,6.691-11.464a.114.114,0,0,1,.033-.026c.118.03.147.143.2.23q2.269,3.885,4.531,7.77a1.462,1.462,0,0,1,.071.162l.06.084.039.088c-.178.107-.365.2-.536.322q-2.013,1.411-4.02,2.83-2.319,1.636-4.639,3.271A.781.781,0,0,1,1686.621,1016.153Z" transform="translate(2.087 5.83)"/><path class="a" d="M1695.576,997.171c-.5.985-1.088,1.916-1.652,2.863-.15-.063-.306-.114-.45-.19q-1.9-.988-3.8-1.986c-1.462-.77-2.92-1.551-4.383-2.319-.539-.282-1.091-.539-1.637-.809q2.589-4.482,5.177-8.967c.151,0,.188.128.246.228.494.849.99,1.694,1.481,2.544,1.077,1.869,2.146,3.741,3.227,5.607C1694.373,995.158,1694.978,996.162,1695.576,997.171Z" transform="translate(1.68 0.048)"/><path class="a" d="M1694.164,997.2c-.6-1.009-1.2-2.013-1.792-3.027-1.081-1.866-2.149-3.738-3.226-5.607-.491-.85-.988-1.7-1.481-2.544-.058-.1-.095-.225-.246-.228l.061-.1q6.4.006,12.8.015c.187,0,.392-.07.557.088q-3.289,5.652-6.58,11.306A.594.594,0,0,1,1694.164,997.2Z" transform="translate(3.093 0.021)"/><path class="a" d="M1692.369,1000.128c-.793,1.383-1.582,2.77-2.382,4.149q-1.976,3.408-3.968,6.808c-.073.125-.117.276-.282.364q-1.437-2.48-2.874-4.957-1.813-3.138-3.618-6.282c.135-.14.311-.082.468-.082Q1686.042,1000.124,1692.369,1000.128Z" transform="translate(0.026 5.433)"/><path class="a" d="M1701.751,1007.132l-3.127,5.412c-.133.232-.256.47-.384.705-.656-1.1-1.319-2.2-1.966-3.3q-2.6-4.435-5.192-8.877c-.075-.128-.136-.264-.2-.4.073-.1.18-.092.285-.092q3.253,0,6.507,0a.4.4,0,0,1,.386.234c.657,1.151,1.313,2.3,1.992,3.441C1700.618,1005.211,1701.114,1006.214,1701.751,1007.132Z" transform="translate(4.391 5.607)"/><path class="a" d="M1709.322,992.876c-.365.118-.413.491-.567.756-1.035,1.775-2.041,3.567-3.061,5.351-.069.122-.128.324-.283.3s-.155-.234-.2-.371q-1.436-4.648-2.864-9.3-.547-1.77-1.091-3.54a2.309,2.309,0,0,1-.051-.351l3.944-.033a9.417,9.417,0,0,1,.857,1.4q1.557,2.663,3.094,5.342C1709.184,992.579,1709.249,992.73,1709.322,992.876Z" transform="translate(8.267 0.021)"/><path class="a" d="M1686.107,1013.879a.781.781,0,0,0,.611-.223q2.323-1.632,4.639-3.27,2.009-1.417,4.02-2.83c.17-.12.358-.215.536-.322.7,1.106,1.356,2.24,1.983,3.39a1.236,1.236,0,0,1-.126.122c-2.582,1.813-5.169,3.618-7.74,5.445-.4.283-.9.465-1.14.945a1.009,1.009,0,0,1-1.308-.624C1687.146,1015.607,1686.6,1014.754,1686.107,1013.879Z" transform="translate(2.601 8.104)"/><path class="a" d="M1684.19,992.285c.546.27,1.1.527,1.637.809,1.463.767,2.921,1.549,4.383,2.319q1.9,1,3.8,1.986c.143.076.3.126.449.19-.633,1.121-1.248,2.252-1.962,3.323a.974.974,0,0,1-.593-.165q-2.818-1.477-5.633-2.95c-.714-.375-1.406-.789-2.131-1.141a19.4,19.4,0,0,0-1.917-.957Z" transform="translate(1.144 2.494)"/><path class="a" d="M1688.13,1016.211c.242-.48.74-.661,1.14-.945,2.572-1.826,5.159-3.632,7.74-5.445a1.191,1.191,0,0,0,.126-.123q1.343,2.271,2.686,4.541c.319.54.623,1.089.955,1.621.19.305.14.392-.224.389-1.81-.012-3.62-.007-5.429-.007q-3.251,0-6.5,0C1688.456,1016.245,1688.292,1016.222,1688.13,1016.211Z" transform="translate(3.36 9.029)"/><path class="a" d="M1692.4,1001.676q-6.327,0-12.657,0c-.157,0-.333-.058-.468.082-.143-.107-.1-.225-.025-.352q1.577-2.707,3.155-5.413a.822.822,0,0,0,.432.37q2.719,1.421,5.435,2.848c.714.376,1.414.774,2.129,1.146.7.363,1.412.7,2.119,1.055C1692.507,1001.513,1692.5,1001.617,1692.4,1001.676Z" transform="translate(0 3.886)"/><path class="a" d="M1701.768,1007.164c-.637-.919-1.133-1.921-1.7-2.878-.678-1.139-1.334-2.29-1.992-3.441a.4.4,0,0,0-.386-.234q-3.254.009-6.507,0c-.1,0-.212-.008-.284.092-.061-.058-.1-.135,0-.163a1.466,1.466,0,0,1,.358-.015q14.2,0,28.388.008c.117,0,.37-.167.374.158-.138-.135-.312-.08-.471-.08-4.505,0-9.012,0-13.518-.012a.752.752,0,0,0-.742.433Q1703.533,1004.1,1701.768,1007.164Z" transform="translate(4.374 5.575)"/><path class="a" d="M1691.636,1001.872c-.707-.351-1.419-.692-2.119-1.055-.715-.371-1.415-.77-2.129-1.146q-2.715-1.43-5.435-2.848a.823.823,0,0,1-.432-.37,17.4,17.4,0,0,1,.969-1.687,19.455,19.455,0,0,1,1.917.957c.725.352,1.417.766,2.13,1.141q2.814,1.479,5.633,2.95a.974.974,0,0,0,.593.165A10.1,10.1,0,0,1,1691.636,1001.872Z" transform="translate(0.88 3.425)"/><path class="a" d="M1693.958,995.305a6.5,6.5,0,0,0,.846,1.646c.682,1.28,1.409,2.536,2.118,3.8h-6.1c-.036-.157.081-.252.146-.362Q1692.458,997.845,1693.958,995.305Z" transform="translate(4.366 3.628)"/><path class="a" d="M1759.335,1023.54c-.234.458-.476.91-.694,1.374a.418.418,0,0,1-.44.287.463.463,0,0,1-.5-.278,9.185,9.185,0,0,0-.8-1.411c0,.751-.029,1.5.011,2.251.023.43-.179.43-.5.439-.355.009-.5-.062-.488-.458.026-1.331,0-2.662.018-3.994,0-.158-.147-.466.165-.455s.693-.234.906.225c.327.7.674,1.4,1.015,2.095.039.078.051.177.182.223q.555-1.156,1.115-2.315a1.065,1.065,0,0,1,1.023-.212c.077.07.047.168.047.253,0,1.437-.011,2.873.01,4.309.005.415-.254.323-.472.314s-.532.141-.518-.318c.025-.767.007-1.537.007-2.308Z" transform="translate(28.795 13.36)"/><path class="a" d="M1782.366,1023.916c.391-.81.753-1.561,1.115-2.312a.965.965,0,0,1,1.028-.315c.111.072.071.188.071.286,0,1.434-.009,2.867.01,4.3.006.461-.307.29-.521.312-.242.023-.47.05-.458-.338a15.287,15.287,0,0,0-.083-2.3c-.231.455-.473.9-.687,1.365a.455.455,0,0,1-.488.29.434.434,0,0,1-.45-.276,7.492,7.492,0,0,0-.795-1.352c0,.722-.023,1.445.01,2.166.016.391-.125.472-.484.464-.329-.008-.509-.023-.5-.444.03-1.342.006-2.687.018-4.031,0-.147-.134-.435.137-.432.306,0,.7-.226.913.209C1781.581,1022.284,1781.953,1023.062,1782.366,1023.916Z" transform="translate(37.881 13.359)"/><path class="a" d="M1796.114,1024.071v-2.224c0-.525.33-.738.844-.564.15.051.118.154.118.249q0,2.2,0,4.39c0,.113.029.279-.148.265-.29-.023-.623.153-.849-.209-.523-.835-1.065-1.657-1.6-2.484-.039-.061-.084-.117-.2-.274,0,.916-.023,1.726.01,2.533.016.4-.129.468-.483.454-.319-.012-.518-.007-.507-.437.03-1.329.005-2.659.018-3.987,0-.165-.143-.461.139-.481s.646-.176.884.209c.486.788,1,1.558,1.5,2.334C1795.9,1023.925,1795.927,1024.038,1796.114,1024.071Z" transform="translate(42.821 13.354)"/><path class="a" d="M1856.243,1024.039c0-.788.03-1.577-.012-2.364-.025-.47.247-.386.527-.407.324-.022.466.043.458.425-.027,1.33-.006,2.661-.018,3.992,0,.165.139.455-.14.483-.3.029-.638.158-.875-.234-.484-.807-1.014-1.587-1.525-2.376-.055-.085-.118-.165-.248-.345,0,.935-.029,1.763.011,2.587.02.44-.217.392-.495.393s-.506.029-.5-.4c.03-1.345.005-2.691.02-4.036,0-.16-.149-.454.157-.466.284-.011.624-.165.85.2.492.785,1,1.558,1.506,2.337.053.084.118.161.179.241Z" transform="translate(65.386 13.363)"/><path class="a" d="M1814.481,1023.209c0,.972-.019,1.81.01,2.646.014.4-.234.338-.462.329s-.521.122-.514-.326c.019-1.36,0-2.722.013-4.082,0-.165-.144-.459.139-.483s.646-.166.882.219c.46.751.95,1.484,1.433,2.222.08.123.131.271.3.355a2.776,2.776,0,0,0,.048-.882c.011-.479-.007-.957.008-1.436,0-.164-.107-.417.1-.474a2,2,0,0,1,.758-.005c.129.015.085.172.085.27q0,2.154,0,4.306c0,.122.051.318-.153.308-.291-.015-.621.151-.847-.214-.477-.776-.982-1.536-1.477-2.3C1814.723,1023.539,1814.635,1023.425,1814.481,1023.209Z" transform="translate(50.404 13.363)"/><path class="a" d="M1834.865,1023.707c0-.686.012-1.374-.006-2.06-.007-.278.051-.4.365-.385.566.027,1.136-.006,1.7.014a1.5,1.5,0,0,1,1.411,1.053,1.35,1.35,0,0,1-.622,1.621c-.208.139-.154.235-.073.391.271.514.529,1.036.809,1.546.132.241.07.276-.186.307a.875.875,0,0,1-1.11-.656,8.722,8.722,0,0,0-.519-1.088.351.351,0,0,0-.333-.232c-.352-.03-.516.047-.476.447s0,.806.014,1.209c.007.22-.045.312-.293.318-.686.018-.686.032-.686-.646Zm1.6-1.558v-.01c-.133,0-.267.01-.4,0-.221-.02-.257.118-.223.278.072.33-.221.782.179.975a1.706,1.706,0,0,0,.92-.012.563.563,0,0,0,.485-.645.571.571,0,0,0-.56-.582C1836.734,1022.139,1836.6,1022.148,1836.466,1022.148Z" transform="translate(58.423 13.368)"/><path class="a" d="M1773.626,1023.721c0-.716.008-1.433,0-2.15,0-.231.06-.315.3-.308.6.016,1.2-.01,1.793.014a1.482,1.482,0,0,1,1.377,1.036,1.36,1.36,0,0,1-.6,1.631c-.193.127-.187.212-.093.384.263.485.5.983.769,1.466.148.27.188.375-.212.406a.85.85,0,0,1-1.029-.648,10.117,10.117,0,0,0-.52-1.088.376.376,0,0,0-.367-.249c-.34-.022-.477.068-.445.433.036.4-.006.807.012,1.209.012.252-.068.332-.325.333-.655,0-.655.018-.655-.633Zm1.487-1.583c-.305-.074-.567-.041-.527.517.055.771.014.776.792.759.524-.011.806-.23.814-.634s-.272-.631-.793-.642C1775.34,1022.137,1775.279,1022.138,1775.113,1022.138Z" transform="translate(35.442 13.369)"/><path class="a" d="M1869.125,1023.708c0-.686.01-1.372,0-2.059-.005-.268.037-.407.36-.388.506.03,1.015,0,1.523.011a1.613,1.613,0,0,1,1.682,1.659c.018.506.018,1.013,0,1.52a1.631,1.631,0,0,1-1.714,1.727c-.506.022-1.015-.007-1.522.011-.26.01-.334-.085-.33-.334C1869.134,1025.14,1869.125,1024.423,1869.125,1023.708Zm2.6.01h-.02c0-.268.018-.536,0-.8a.764.764,0,0,0-.811-.77c-.164-.01-.329.005-.491-.008-.228-.019-.313.062-.311.3.012.862.01,1.726,0,2.59,0,.2.05.278.27.29,1.056.062,1.331-.179,1.365-1.242C1871.726,1023.956,1871.723,1023.836,1871.723,1023.718Z" transform="translate(71.28 13.368)"/><path class="a" d="M1796.88,1023.7c0-.7.01-1.406-.005-2.108-.005-.25.066-.335.323-.327.524.019,1.05-.005,1.572.011a1.587,1.587,0,0,1,1.638,1.465,7.476,7.476,0,0,1,.015,1.834,1.619,1.619,0,0,1-1.745,1.606c-.494.016-.989-.01-1.483.01-.268.011-.325-.095-.319-.338C1796.888,1025.134,1796.88,1024.416,1796.88,1023.7Zm.97,0v.939c0,.707,0,.7.724.678a.753.753,0,0,0,.826-.6,5.125,5.125,0,0,0,.011-1.957.7.7,0,0,0-.682-.6c-.208-.019-.418,0-.627-.016s-.261.067-.256.26C1797.856,1022.829,1797.85,1023.262,1797.85,1023.694Z" transform="translate(44.168 13.368)"/><path class="a" d="M1857.007,1023.7c0-.7.01-1.407-.007-2.108-.005-.254.066-.337.325-.327.524.021,1.049-.006,1.573.011a1.587,1.587,0,0,1,1.638,1.466,7.325,7.325,0,0,1,.015,1.833,1.621,1.621,0,0,1-1.748,1.607c-.494.016-.989-.01-1.482.009-.269.011-.324-.095-.321-.338C1857.016,1025.134,1857.007,1024.414,1857.007,1023.7Zm2.6,0c0-.149.005-.3,0-.447-.036-.924-.55-1.309-1.459-1.11-.17.037-.169.133-.169.253,0,.894,0,1.789,0,2.683,0,.165.048.224.226.242,1.015.1,1.371-.2,1.4-1.218C1859.61,1023.962,1859.607,1023.829,1859.607,1023.694Z" transform="translate(66.732 13.368)"/><path class="a" d="M1747.738,1023.737c0-.27-.011-.539,0-.807a1.793,1.793,0,0,1,3.555-.212,5.121,5.121,0,0,1-.172,2.606.215.215,0,0,0,.09.3c.238.177.216.312.007.52s-.345.231-.522-.005a.272.272,0,0,0-.348-.092c-1.622.5-2.6-.208-2.621-1.9,0-.135,0-.268,0-.4Zm2.6,1a8.057,8.057,0,0,0-.032-2.061.734.734,0,0,0-.8-.58.758.758,0,0,0-.768.677,7.231,7.231,0,0,0,0,1.918.7.7,0,0,0,1.032.569c.014-.215-.487-.232-.194-.561C1749.791,1024.452,1749.995,1024.275,1750.334,1024.737Z" transform="translate(25.724 13.36)"/><path class="a" d="M1847.033,1023.69c.017-.29.023-.6.054-.916a1.666,1.666,0,0,1,1.647-1.531,1.784,1.784,0,0,1,1.917,1.294c.045.182.041.283-.19.272-.369-.018-.745.095-.946-.414-.121-.307-.506-.351-.832-.281a.725.725,0,0,0-.611.636,6.337,6.337,0,0,0,0,1.965.759.759,0,0,0,.971.62.838.838,0,0,0,.709-.9c-.047-.351-.333-.182-.5-.179-.3.005-.415-.056-.415-.389,0-.348.091-.475.449-.443a6.706,6.706,0,0,0,1.077,0c.292-.021.367.1.343.36-.019.223,0,.448-.015.673a1.814,1.814,0,0,1-3.623.056C1847.052,1024.252,1847.047,1023.983,1847.033,1023.69Z" transform="translate(62.991 13.36)"/><path class="a" d="M1787.727,1023.739c-.016.313-.022.628-.052.941a1.8,1.8,0,0,1-3.521.176,6.417,6.417,0,0,1,0-2.272,1.8,1.8,0,0,1,3.515.171C1787.707,1023.082,1787.711,1023.41,1787.727,1023.739Zm-2.646-.011h-.006c0,.283,0,.567,0,.85a.609.609,0,0,0,.022.132.768.768,0,0,0,.843.642.747.747,0,0,0,.753-.686,6.224,6.224,0,0,0,.006-1.83.81.81,0,0,0-1.613,0A7.5,7.5,0,0,0,1785.082,1023.728Z" transform="translate(39.357 13.36)"/><path class="a" d="M1800.047,1023.7c.016-.318.02-.648.055-.974a1.663,1.663,0,0,1,1.641-1.484,1.691,1.691,0,0,1,1.858,1.276,6.105,6.105,0,0,1,.008,2.359,1.692,1.692,0,0,1-1.943,1.331,1.674,1.674,0,0,1-1.571-1.558C1800.069,1024.341,1800.062,1024.028,1800.047,1023.7Zm2.651.052h.032a9.388,9.388,0,0,0-.056-.982.782.782,0,0,0-.819-.679.774.774,0,0,0-.78.715,6.311,6.311,0,0,0-.009,1.786.762.762,0,0,0,.822.759.785.785,0,0,0,.8-.792C1802.719,1024.294,1802.7,1024.023,1802.7,1023.755Z" transform="translate(45.359 13.36)"/><path class="a" d="M1841.662,1023.74a6.154,6.154,0,0,1-.069,1.114,1.723,1.723,0,0,1-1.931,1.359,1.677,1.677,0,0,1-1.6-1.576,10.488,10.488,0,0,1,.006-1.88,1.667,1.667,0,0,1,1.661-1.513,1.723,1.723,0,0,1,1.853,1.291A5.7,5.7,0,0,1,1841.662,1023.74Zm-1,0h.032a9.268,9.268,0,0,0-.048-.938.793.793,0,0,0-.84-.708.774.774,0,0,0-.766.73,6.355,6.355,0,0,0,0,1.786.756.756,0,0,0,.792.744.779.779,0,0,0,.83-.763A8.041,8.041,0,0,0,1840.665,1023.739Z" transform="translate(59.61 13.36)"/><path class="a" d="M1863.818,1023.761a6.539,6.539,0,0,1-.063,1.071,1.73,1.73,0,0,1-1.957,1.379,1.681,1.681,0,0,1-1.583-1.6,11.525,11.525,0,0,1,.006-1.836,1.667,1.667,0,0,1,1.641-1.535,1.724,1.724,0,0,1,1.88,1.312A6.215,6.215,0,0,1,1863.818,1023.761Zm-1-.016h.034a9.219,9.219,0,0,0-.059-.982.807.807,0,0,0-1.6.057,6.534,6.534,0,0,0,0,1.786.767.767,0,0,0,.788.754.789.789,0,0,0,.833-.763A8.453,8.453,0,0,0,1862.821,1023.744Z" transform="translate(67.925 13.36)"/><path class="a" d="M1776.775,1023.71c.019-.332.026-.66.061-.986a1.665,1.665,0,0,1,1.646-1.48,1.691,1.691,0,0,1,1.854,1.283,6.154,6.154,0,0,1,.007,2.36,1.795,1.795,0,0,1-3.51-.2C1776.8,1024.365,1776.793,1024.036,1776.775,1023.71Zm2.658.044h-.005c0-.3,0-.6,0-.9a.734.734,0,0,0-.043-.173.759.759,0,0,0-.8-.59.749.749,0,0,0-.771.67,6.047,6.047,0,0,0-.015,1.831.768.768,0,0,0,.824.762.8.8,0,0,0,.8-.8C1779.455,1024.293,1779.433,1024.024,1779.433,1023.754Z" transform="translate(36.626 13.36)"/><path class="a" d="M1820.08,1023.728c0-.27-.011-.539,0-.807a1.794,1.794,0,0,1,3.55-.238,6.349,6.349,0,0,1-.029,2.228,1.7,1.7,0,0,1-1.925,1.3,1.679,1.679,0,0,1-1.586-1.545c-.026-.311,0-.626,0-.939Zm2.609-.014h0c0-.283.022-.569,0-.85a.8.8,0,0,0-.828-.773.789.789,0,0,0-.792.756,7.729,7.729,0,0,0,0,1.744.812.812,0,0,0,1.62.018C1822.713,1024.314,1822.689,1024.013,1822.689,1023.714Z" transform="translate(52.875 13.36)"/><path class="a" d="M1790.283,1023.733c0-.7.009-1.4,0-2.1-.005-.249.023-.375.329-.367.868.022,1.736.029,2.6,0,.388-.014.308.216.308.426,0,.226.086.487-.326.461-.521-.032-1.048.01-1.569-.014-.3-.014-.375.089-.373.377.008.751-.005.751.751.751h.629c.528,0,.687.224.55.732-.048.176-.168.14-.278.141-.448,0-.9.014-1.346,0-.237-.008-.3.069-.3.3-.022.879-.031.877.844.877.388,0,.778.017,1.167,0,.339-.019.272.216.249.385s.176.492-.235.492c-.912,0-1.825-.007-2.737,0-.242,0-.26-.117-.259-.3C1790.288,1025.167,1790.283,1024.451,1790.283,1023.733Z" transform="translate(41.693 13.368)"/><path class="a" d="M1827.534,1023.709c0-.7.008-1.4,0-2.106,0-.234.03-.347.308-.341.883.018,1.766.022,2.647,0,.4-.01.272.257.282.448.011.212.08.455-.3.436-.536-.026-1.077.01-1.615-.012-.283-.011-.349.084-.349.355,0,.773-.011.773.776.773a5.941,5.941,0,0,0,.717-.005c.363-.044.444.1.447.447s-.092.469-.447.44c-.4-.032-.807,0-1.212-.011-.219-.008-.269.072-.279.281-.039.9-.047.9.869.9h.853c.538,0,.679.2.55.722-.043.176-.157.15-.271.15-.9,0-1.795-.007-2.693.007-.267,0-.281-.125-.28-.33C1827.539,1025.142,1827.534,1024.426,1827.534,1023.709Z" transform="translate(55.672 13.368)"/><path class="a" d="M1844.135,1023.733c0-.7.008-1.4-.006-2.106,0-.249.026-.374.33-.366.868.022,1.736.029,2.6,0,.388-.014.308.216.308.426,0,.226.087.487-.326.461-.521-.033-1.048.01-1.569-.014-.3-.014-.375.088-.373.377.007.751-.007.751.751.751h.628c.527,0,.687.224.549.732-.048.177-.167.14-.277.14-.45,0-.9.015-1.347,0-.238-.008-.3.072-.3.3-.022.878-.032.876.846.876.387,0,.778.017,1.166,0,.34-.018.271.217.247.386s.176.491-.236.491c-.912,0-1.823-.007-2.737,0-.242,0-.259-.118-.257-.3C1844.138,1025.166,1844.135,1024.449,1844.135,1023.733Z" transform="translate(61.902 13.368)"/><path class="a" d="M1852.054,1021.269c.434,0,.869.021,1.3-.007.4-.026.282.246.287.441s.089.461-.3.442c-.536-.025-1.077.008-1.615-.012-.275-.01-.354.073-.352.351,0,.777-.013.777.768.777a5.006,5.006,0,0,0,.673-.005c.392-.052.522.083.5.485-.018.3-.076.434-.4.4a4.684,4.684,0,0,0-.762,0c-.249.012-.633-.118-.715.065a2.447,2.447,0,0,0-.053.964c0,.189.158.14.267.142.553,0,1.107.027,1.659-.007.36-.023.351.173.329.409-.019.206.125.492-.305.48-.881-.024-1.763-.011-2.646,0-.208,0-.287-.059-.287-.278q.012-2.195,0-4.39c0-.2.063-.259.257-.255C1851.127,1021.276,1851.591,1021.269,1852.054,1021.269Z" transform="translate(64.257 13.368)"/><path class="a" d="M1754.61,1023.106c0,.507.016,1.015,0,1.522a1.665,1.665,0,0,1-1.727,1.582,1.688,1.688,0,0,1-1.859-1.543c-.039-1.044-.006-2.089-.018-3.134,0-.232.095-.26.292-.265.687-.019.686-.028.686.679,0,.851-.008,1.7.005,2.552a.841.841,0,1,0,1.677-.073c.007-.88.021-1.762-.006-2.642-.011-.382.062-.531.5-.532s.494.146.47.51c-.029.446-.007.9-.007,1.344Z" transform="translate(26.953 13.365)"/><path class="a" d="M1810.44,1026.184c-.533,0-.532,0-.352-.5.494-1.36,1-2.716,1.474-4.082a.549.549,0,0,1,1.025.012c.492,1.407,1.009,2.806,1.534,4.2.112.294.075.366-.256.378-.441.016-.762-.045-.809-.562-.025-.282-.205-.359-.469-.33a2.345,2.345,0,0,1-.538,0c-.55-.069-.989-.011-1.077.681C1810.931,1026.317,1810.611,1026.136,1810.44,1026.184Zm1.707-3.3-.1,0-.539,1.586h1.176Z" transform="translate(49.086 13.367)"/><path class="a" d="M1770.485,1023.7c0-.7.01-1.406-.005-2.107-.007-.253.066-.337.324-.329.568.019,1.137-.008,1.706.012a1.525,1.525,0,0,1-.032,3.05c-.325.014-.752-.142-.948.068-.21.224-.048.653-.07.993,0,.059,0,.12,0,.179,0,.631-.155.743-.8.623-.239-.044-.176-.2-.177-.337C1770.482,1025.132,1770.485,1024.414,1770.485,1023.7Zm1.566-1.557c-.161.087-.506-.175-.569.149a1.779,1.779,0,0,0,.045,1.087c.117.218.576.081.88.067a.625.625,0,0,0,.6-.869C1772.857,1022.106,1772.465,1022.137,1772.051,1022.141Z" transform="translate(34.263 13.368)"/><path class="a" d="M1831.722,1023.737c0-.7.017-1.406-.007-2.108-.009-.3.095-.377.381-.366.538.022,1.078,0,1.616.011a1.526,1.526,0,1,1,0,3.052c-.324.014-.755-.143-.946.07-.2.228-.047.656-.066,1,0,.06,0,.119,0,.18,0,.617-.175.743-.8.616-.237-.048-.171-.211-.172-.344C1831.72,1025.141,1831.722,1024.438,1831.722,1023.737Zm.977-.956c.019.335-.153.747.506.69.793-.069,1.093-.2,1.088-.679s-.3-.652-1.056-.652C1832.7,1022.14,1832.7,1022.14,1832.7,1022.781Z" transform="translate(57.243 13.368)"/><path class="a" d="M1808.425,1026.184a2.483,2.483,0,0,0-.392,0c-.409.066-.655-.07-.708-.5a.4.4,0,0,0-.524-.38,1.846,1.846,0,0,1-.493,0c-.544-.064-1-.025-1.082.672-.021.173-.885.314-.993.173-.063-.081,0-.169.028-.252.535-1.472,1.074-2.94,1.6-4.415a.29.29,0,0,1,.371-.212c.186.03.432-.124.538.169q.836,2.312,1.673,4.624C1808.451,1026.091,1808.435,1026.123,1808.425,1026.184Zm-1.488-1.7-.594-1.738-.6,1.738Z" transform="translate(46.92 13.367)"/><path class="a" d="M1874.172,1025.308a1.813,1.813,0,0,1-.313,0,.575.575,0,0,0-.77.543c-.051.286-.753.485-1,.318-.1-.071-.056-.163-.029-.238q.815-2.245,1.634-4.489c.1-.271.321-.153.494-.165.149-.01.312-.059.4.173.538,1.5,1.091,2.993,1.643,4.486.059.162.046.234-.156.256-.663.073-.754.04-.956-.587-.073-.227-.172-.321-.407-.3C1874.531,1025.322,1874.351,1025.308,1874.172,1025.308Zm-.009-2.572-.6,1.745h1.192Z" transform="translate(72.371 13.367)"/><path class="a" d="M1768.068,1026.146c-.472.137-.663-.058-.712-.429-.048-.355-.245-.465-.583-.415a1.782,1.782,0,0,1-.492,0c-.542-.073-.955.017-1.031.671-.022.176-.865.321-1,.186-.079-.081-.007-.166.021-.245.534-1.469,1.078-2.933,1.6-4.409.1-.293.3-.228.494-.236s.362-.021.452.236c.519,1.459,1.059,2.909,1.593,4.362C1768.607,1026.41,1768.137,1026.08,1768.068,1026.146Zm-1.653-3.272-.1.011c-.076.208-.154.412-.225.622-.377,1.086-.376,1.086.849.954Z" transform="translate(31.913 13.37)"/><path class="a" d="M1877.029,1026.221a2.469,2.469,0,0,1-1.582-.45c-.165-.127-.2-.225-.029-.386.242-.234.407-.494.824-.191a1.525,1.525,0,0,0,1.223.114.52.52,0,0,0,.443-.542.5.5,0,0,0-.434-.542c-.28-.053-.56-.091-.839-.146a1.275,1.275,0,0,1-1.21-1.272,1.4,1.4,0,0,1,1.069-1.47,2.339,2.339,0,0,1,1.9.221c.112.07.392.159.229.331s-.276.6-.674.392a1.731,1.731,0,0,0-.952-.193.588.588,0,0,0-.623.527c-.049.386.2.535.521.605.248.055.5.076.753.12a1.233,1.233,0,0,1,1.186,1.188,1.389,1.389,0,0,1-.908,1.531A2.089,2.089,0,0,1,1877.029,1026.221Z" transform="translate(73.602 13.357)"/><path class="a" d="M1824.876,1026.221a2.485,2.485,0,0,1-1.6-.459c-.171-.132-.182-.221-.02-.382.247-.246.418-.474.829-.182a1.543,1.543,0,0,0,1.223.11.522.522,0,0,0,.438-.549.5.5,0,0,0-.439-.536c-.279-.05-.561-.092-.839-.147a1.268,1.268,0,0,1-1.2-1.273,1.389,1.389,0,0,1,1.07-1.467,2.351,2.351,0,0,1,1.9.223c.114.07.388.166.215.34s-.268.605-.677.378a1.59,1.59,0,0,0-.818-.191c-.454.007-.722.2-.743.547-.026.47.318.554.671.616.206.037.415.058.62.095a1.234,1.234,0,0,1,1.159,1.066,1.414,1.414,0,0,1-.826,1.621A1.979,1.979,0,0,1,1824.876,1026.221Z" transform="translate(54.024 13.357)"/><path class="a" d="M1761.4,1023.73a6.323,6.323,0,0,1,.067-1.117,1.687,1.687,0,0,1,1.654-1.371,1.738,1.738,0,0,1,1.829,1.218c.076.246.047.348-.245.342-.359-.005-.646.011-.87-.4a.764.764,0,0,0-1.341.162,4.623,4.623,0,0,0-.014,2.3.653.653,0,0,0,.641.476.753.753,0,0,0,.8-.378,1.043,1.043,0,0,1,1-.283c.135.074.065.182.043.272a1.826,1.826,0,0,1-3.479-.023A5.7,5.7,0,0,1,1761.4,1023.73Z" transform="translate(30.855 13.36)"/><path class="a" d="M1816.952,1023.723a6.107,6.107,0,0,1,.069-1.117,1.689,1.689,0,0,1,1.66-1.364,1.742,1.742,0,0,1,1.826,1.222c.075.253.026.344-.256.338-.359-.005-.681.025-.864-.408a.634.634,0,0,0-.743-.289.676.676,0,0,0-.622.509,5.3,5.3,0,0,0,0,2.221.666.666,0,0,0,.66.513.753.753,0,0,0,.794-.385,1.031,1.031,0,0,1,1-.274c.126.078.055.187.032.277a1.715,1.715,0,0,1-1.845,1.249,1.691,1.691,0,0,1-1.638-1.331A5.767,5.767,0,0,1,1816.952,1023.723Z" transform="translate(51.703 13.36)"/><path class="a" d="M1788.979,1024.313c.254-.825.536-1.645.751-2.481.117-.458.329-.651.795-.561a3.3,3.3,0,0,0,.392.025c-.388,1.176-.765,2.32-1.143,3.466-.127.383-.28.758-.379,1.147-.071.282-.247.283-.469.283s-.36-.011-.44-.26c-.472-1.462-.959-2.918-1.446-4.376-.07-.212-.032-.281.208-.289.7-.025.7-.036.909.645q.368,1.195.733,2.389Z" transform="translate(40.467 13.364)"/><path class="a" d="M1864.3,1021.314c.962-.095.96-.095,1.229.767.235.751.471,1.5.74,2.359.307-.987.581-1.866.853-2.745a.818.818,0,0,1,1.021-.4c.117.065.062.155.037.228-.5,1.5-1,2.993-1.494,4.49-.1.305-.345.146-.528.185-.245.052-.3-.129-.355-.3q-.6-1.826-1.2-3.649C1864.507,1021.947,1864.41,1021.651,1864.3,1021.314Z" transform="translate(69.471 13.357)"/><path class="a" d="M1807.189,1021.313c.974-.094.974-.094,1.239.763.231.75.464,1.5.733,2.368.3-.97.568-1.82.832-2.671a.765.765,0,0,1,1.015-.492c.168.063.084.176.058.253-.488,1.488-.989,2.973-1.476,4.463-.091.279-.3.179-.477.2a.317.317,0,0,1-.4-.253C1808.223,1024.412,1807.71,1022.885,1807.189,1021.313Z" transform="translate(48.039 13.356)"/><path class="a" d="M1843.253,1024.152c0,.568-.023,1.137.008,1.7.022.409-.236.339-.462.325s-.528.139-.52-.316c.02-1.091-.012-2.182.016-3.273.011-.388-.117-.507-.479-.452-.117.016-.241-.014-.358.005-.388.062-.476-.113-.465-.473.011-.293.053-.418.388-.41.944.025,1.887.028,2.829,0,.358-.011.348.173.332.411-.014.219.095.5-.321.476-.307-.015-.715-.145-.9.064s-.052.629-.063.954S1843.253,1023.824,1843.253,1024.152Z" transform="translate(60.725 13.368)"/><path class="a" d="M1868.578,1023.73c0,.7-.012,1.406.006,2.108.008.278-.083.359-.356.351-.772-.023-.619.057-.623-.612-.008-1.316.017-2.632-.014-3.947-.009-.42.22-.374.472-.359s.552-.129.525.351C1868.55,1022.323,1868.578,1023.027,1868.578,1023.73Z" transform="translate(70.706 13.368)"/><path class="a" d="M1755.382,1023.718c0,.718-.011,1.436,0,2.154.012.5-.354.272-.569.306s-.423.041-.418-.32c.021-1.421.025-2.841,0-4.261-.007-.455.282-.318.5-.323s.514-.107.493.337C1755.357,1022.313,1755.382,1023.015,1755.382,1023.718Z" transform="translate(28.228 13.367)"/><path class="a" d="M1760.954,1023.692c0,.716-.021,1.434.008,2.149.015.387-.206.36-.452.341-.223-.018-.52.127-.514-.325.02-1.433.01-2.866,0-4.3,0-.2.041-.285.269-.294.685-.026.685-.038.685.635Z" transform="translate(30.329 13.366)"/><path class="a" d="M1768.846,1023.261c.157.5-.136.5-.517.521-.473.033-.507-.168-.521-.56-.017-.442.152-.5.536-.5C1768.755,1022.715,1768.987,1022.792,1768.846,1023.261Z" transform="translate(33.26 13.915)"/><path class="a" d="M1768.844,1024.605c.161.514-.134.51-.516.538-.483.034-.5-.184-.52-.57-.022-.445.158-.5.538-.5C1768.755,1024.07,1769,1024.14,1768.844,1024.605Z" transform="translate(33.26 14.424)"/><path class="a" d="M1755.776,1020.125c-.469.386-.426,1.256-1.313,1.115C1754.591,1020.134,1754.756,1019.986,1755.776,1020.125Z" transform="translate(28.252 12.926)"/><path class="a" d="M1817.74,1026.124a5.755,5.755,0,0,0,.33-.717c.114-.374.4-.275.656-.279.064,0,.1.025.113.1a.843.843,0,0,1-.785.919C1817.969,1026.146,1817.883,1026.135,1817.74,1026.124Z" transform="translate(51.999 14.816)"/><path class="a" d="M1693.226,1007.193l-.061-.084Z" transform="translate(5.249 8.057)"/></g></svg>