<svg xmlns="http://www.w3.org/2000/svg" width="145.963" height="29.551" viewBox="0 0 145.963 29.551"><defs><style>.a{fill:#fff;}</style></defs><g transform="translate(-1679.177 -985.638)"><path class="a" d="M1695.681,985.684c-.318-.04-.637-.009-.956-.02a.2.2,0,0,0-.144.07c-.088-.084-.2-.047-.3-.047q-3.417-.007-6.834-.008l-.035-.041h8.3a.129.129,0,0,1,0,.041A.062.062,0,0,1,1695.681,985.684Z" transform="translate(-2.187 0)"/><path class="a" d="M1698.722,985.679a.126.126,0,0,0,0-.041h3.937a.2.2,0,0,0,0,.041l-2.107.018Z" transform="translate(-5.188 0)"/><path class="a" d="M1856.377,1001.9c.557-.746,1.1-1.474,1.646-2.2q3.179-4.264,6.353-8.533a1.148,1.148,0,0,1,1.053-.523c.7.026,1.408,0,2.112.007a.826.826,0,0,1,.9.9q0,7.045,0,14.091a.827.827,0,0,1-.9.893q-1.235.005-2.472,0a.816.816,0,0,1-.891-.9q0-3.582,0-7.165v-.262c-.109.031-.135.114-.18.174q-2.922,3.86-5.837,7.723a.975.975,0,0,1-.856.43q-1.043-.017-2.088,0a.982.982,0,0,1-.856-.432q-2.907-3.84-5.824-7.673c-.053-.069-.106-.137-.2-.259v7.371c0,.684-.309.99-1,.99-.785,0-1.568,0-2.352,0a.826.826,0,0,1-.918-.918q0-7.022,0-14.043a.825.825,0,0,1,.917-.92c.807,0,1.616.007,2.423,0a.974.974,0,0,1,.855.43q3.969,5.305,7.946,10.6C1856.258,1001.748,1856.311,1001.816,1856.377,1001.9Z" transform="translate(-43.767 -1.328)"/><path class="a" d="M1746.89,998.568q0-3.666,0-7.332c0-.392.181-.584.564-.583q6.3,0,12.6.012a6.343,6.343,0,0,1,2.612.529,3.081,3.081,0,0,1,1.933,2.893,12.878,12.878,0,0,1-.041,2.3,2.786,2.786,0,0,1-.865,1.692c-.106.1-.1.136.014.223a2.627,2.627,0,0,1,1.085,2.141c.021.878.03,1.758,0,2.635a3.086,3.086,0,0,1-1.734,2.781,6.639,6.639,0,0,1-3.155.679q-6.216.015-12.43.007c-.4,0-.579-.189-.58-.594Q1746.889,1002.257,1746.89,998.568Zm3.829.026c0,1.493.005,2.987-.005,4.48,0,.223.061.273.277.272,2.816-.007,5.631,0,8.447-.006.2,0,.4-.009.6-.027.671-.062.94-.35.948-1.018.005-.5,0-1.006,0-1.51a.677.677,0,0,0-.612-.779,3.541,3.541,0,0,0-.88-.09h-6.767c-.333,0-.349-.017-.35-.355q0-1.222,0-2.444c0-.385.018-.4.406-.4l6.791,0a3.376,3.376,0,0,0,.763-.061c.332-.079.452-.211.456-.545q.01-.814,0-1.629c0-.352-.119-.48-.466-.561a3.493,3.493,0,0,0-.811-.062q-4.284,0-8.567-.006c-.193,0-.237.054-.235.24C1750.723,995.591,1750.719,997.092,1750.719,998.594Z" transform="translate(-17.973 -1.331)"/><path class="a" d="M1789.6,990.655h5.016a7.468,7.468,0,0,1,2.683.43,3.5,3.5,0,0,1,2.4,3.384c.022,2.755.037,5.512-.007,8.268a3.488,3.488,0,0,1-2.324,3.348.282.282,0,0,1-.423-.148c-.458-.812-.929-1.619-1.4-2.423-.107-.181-.129-.31.08-.432a.53.53,0,0,0,.253-.44c.009-.127.018-.255.018-.383q0-3.666,0-7.333c0-.734-.249-1-.992-1.053-.151-.011-.3-.012-.456-.013h-9.673a2.772,2.772,0,0,0-.9.1.681.681,0,0,0-.553.737q0,3.9,0,7.789c0,.5.278.757.866.826a5.805,5.805,0,0,0,.671.035q4.549,0,9.1-.005a.571.571,0,0,1,.583.33c.962,1.71,1.943,3.41,2.918,5.113a1.876,1.876,0,0,0,.121.206.52.52,0,0,1,.071.6.547.547,0,0,1-.552.256c-.928-.005-1.856-.009-2.785,0a.633.633,0,0,1-.628-.38c-.483-.908-.985-1.806-1.471-2.714a.341.341,0,0,0-.351-.208q-3.516.009-7.033,0a8.492,8.492,0,0,1-2.7-.357,3.587,3.587,0,0,1-2.633-3.612q-.013-3.907,0-7.813a3.69,3.69,0,0,1,3.158-3.912,9.006,9.006,0,0,1,2-.2Q1787.126,990.658,1789.6,990.655Z" transform="translate(-26.627 -1.331)"/><path class="a" d="M1828.287,997.107q0,2.7,0,5.392a5.321,5.321,0,0,1-.258,1.792,3.164,3.164,0,0,1-2.386,2.041,7.269,7.269,0,0,1-1.853.215q-5.125,0-10.249-.007a6.984,6.984,0,0,1-2.423-.407,3.559,3.559,0,0,1-2.457-3.549c-.018-3.787-.007-7.573-.006-11.36a.509.509,0,0,1,.582-.568q1.32,0,2.641,0c.43,0,.605.178.605.616,0,3.683.007,7.365-.007,11.049,0,.609.2.891.9.992a4.062,4.062,0,0,0,.574.034q4.524,0,9.049,0a3.244,3.244,0,0,0,.762-.071.754.754,0,0,0,.7-.872q0-2.756,0-5.512t0-5.536c0-.555.144-.7.689-.7h2.5c.474,0,.636.16.636.629Q1828.288,994.195,1828.287,997.107Z" transform="translate(-34.367 -1.331)"/><path class="a" d="M1728.064,995.028l-1.6,2.965q-2.2,4.072-4.4,8.149a.665.665,0,0,1-.663.4c-.951-.012-1.9-.026-2.855,0a.545.545,0,0,1-.511-.879q4.256-7.312,8.481-14.641a.664.664,0,0,1,.653-.383c.616.016,1.232.01,1.848,0a.586.586,0,0,1,.563.327q4.265,7.376,8.534,14.749a.5.5,0,0,1-.464.816c-1,.005-2,0-3,0a.623.623,0,0,1-.587-.407q-2.922-5.424-5.852-10.844C1728.172,995.217,1728.128,995.143,1728.064,995.028Z" transform="translate(-10.286 -1.329)"/><path class="a" d="M1697.23,985.694l1.825.018a1.187,1.187,0,0,0,.027.187c.192.631.388,1.26.582,1.891q.765,2.482,1.53,4.965c.023.073.023.186.106.2s.115-.1.151-.161c.545-.953,1.082-1.91,1.635-2.858.083-.142.108-.341.3-.4q.745,1.28,1.491,2.56c.682,1.179,1.362,2.36,2.039,3.534-.029.076-.085.048-.126.048h-12.014c-.032,0-.064-.005-.1-.007-.378-.676-.767-1.346-1.131-2.03a3.476,3.476,0,0,1-.452-.879c.5-.877,1.007-1.756,1.516-2.63q1.285-2.214,2.574-4.425A.063.063,0,0,0,1697.23,985.694Z" transform="translate(-3.696 -0.015)"/><path class="a" d="M1707.855,1000.622q-1.012,1.763-2.026,3.526-1.848,3.2-3.7,6.4a.394.394,0,0,1-.4.228c-1.1-.008-2.206,0-3.309,0-.123,0-.22,0-.3-.138-.617-1.071-1.244-2.137-1.867-3.2a.5.5,0,0,1-.034-.088c.068-.126.134-.253.2-.377l1.671-2.891q.941-1.636,1.88-3.273a.4.4,0,0,1,.4-.231c2.406.009,4.814.005,7.22.007C1707.688,1000.58,1707.781,1000.55,1707.855,1000.622Z" transform="translate(-4.527 -3.964)"/><path class="a" d="M1840.79,998.611v7.285c0,.484-.16.645-.646.646q-1.285,0-2.569,0c-.43,0-.609-.181-.609-.616q0-7.321,0-14.641c0-.464.171-.632.64-.632q1.285,0,2.568,0c.452,0,.616.168.616.626Z" transform="translate(-41.883 -1.33)"/><path class="a" d="M1776.625,998.6v7.285c0,.505-.153.66-.654.66h-2.52c-.476,0-.64-.162-.641-.627V991.274c0-.458.164-.622.619-.622q1.3,0,2.592,0c.439,0,.6.167.6.613Z" transform="translate(-24.854 -1.33)"/><path class="a" d="M1685.744,1009.175q-.484-.823-.97-1.646a.186.186,0,0,1,0-.217q1.79-3.06,3.574-6.123c0-.006.012-.01.018-.014.063.016.079.076.106.123q1.212,2.075,2.42,4.15a.8.8,0,0,1,.038.087l.032.045.021.047c-.1.057-.2.108-.286.172q-1.075.753-2.147,1.512-1.239.874-2.478,1.747A.417.417,0,0,1,1685.744,1009.175Z" transform="translate(-1.476 -4.124)"/><path class="a" d="M1690.022,991.857c-.265.526-.581,1.023-.882,1.529-.08-.034-.164-.061-.24-.1q-1.017-.528-2.03-1.061c-.781-.411-1.559-.829-2.341-1.239-.288-.151-.583-.288-.874-.432l2.765-4.789c.081,0,.1.068.131.122.264.453.529.9.791,1.359.575,1,1.146,2,1.724,2.995C1689.379,990.782,1689.7,991.318,1690.022,991.857Z" transform="translate(-1.188 -0.034)"/><path class="a" d="M1691.021,991.838c-.32-.539-.643-1.075-.957-1.617-.577-1-1.148-2-1.723-2.995-.262-.454-.527-.906-.791-1.359-.031-.054-.051-.12-.132-.122l.032-.053q3.418,0,6.834.008c.1,0,.209-.037.3.047l-3.514,6.039A.334.334,0,0,1,1691.021,991.838Z" transform="translate(-2.188 -0.014)"/><path class="a" d="M1686.255,1000.123c-.424.739-.845,1.48-1.272,2.216q-1.055,1.82-2.119,3.636c-.039.067-.062.148-.151.194q-.768-1.324-1.535-2.647-.968-1.676-1.933-3.355c.072-.075.166-.044.25-.044Q1682.875,1000.121,1686.255,1000.123Z" transform="translate(-0.018 -3.843)"/><path class="a" d="M1696.685,1004.079l-1.67,2.891c-.071.124-.137.251-.2.377-.35-.588-.7-1.173-1.05-1.763q-1.389-2.369-2.773-4.742c-.04-.068-.073-.141-.109-.212.039-.054.1-.049.152-.049q1.738,0,3.475,0a.211.211,0,0,1,.206.125c.351.615.7,1.23,1.064,1.838C1696.08,1003.053,1696.345,1003.588,1696.685,1004.079Z" transform="translate(-3.106 -3.966)"/><path class="a" d="M1705.541,989.53c-.194.063-.22.262-.3.4-.553.948-1.09,1.905-1.635,2.858-.037.065-.068.173-.151.161s-.083-.125-.106-.2q-.766-2.482-1.53-4.965-.292-.946-.583-1.891a1.187,1.187,0,0,1-.027-.187l2.107-.018a5.031,5.031,0,0,1,.458.749q.832,1.422,1.653,2.853C1705.467,989.371,1705.5,989.452,1705.541,989.53Z" transform="translate(-5.847 -0.015)"/><path class="a" d="M1686.107,1010.783a.417.417,0,0,0,.326-.119q1.241-.872,2.478-1.747,1.073-.757,2.147-1.512c.091-.064.191-.115.287-.172.376.591.724,1.2,1.059,1.811a.679.679,0,0,1-.068.065c-1.379.968-2.761,1.933-4.134,2.908-.214.151-.48.248-.609.5a.539.539,0,0,1-.7-.334C1686.661,1011.706,1686.372,1011.25,1686.107,1010.783Z" transform="translate(-1.839 -5.732)"/><path class="a" d="M1683.275,992.285c.292.144.586.281.874.432.781.41,1.56.827,2.341,1.239q1.012.533,2.03,1.061c.076.04.16.068.24.1-.338.6-.667,1.2-1.048,1.775a.521.521,0,0,1-.317-.088q-1.505-.789-3.009-1.576c-.381-.2-.75-.422-1.138-.61a10.417,10.417,0,0,0-1.024-.511Z" transform="translate(-0.809 -1.764)"/><path class="a" d="M1688.13,1013.177c.129-.256.4-.353.609-.5,1.374-.975,2.755-1.94,4.134-2.908a.642.642,0,0,0,.068-.065q.718,1.213,1.435,2.426c.171.289.333.582.51.866.1.163.075.209-.12.208-.967-.007-1.933,0-2.9,0q-1.737,0-3.474,0C1688.3,1013.2,1688.217,1013.183,1688.13,1013.177Z" transform="translate(-2.376 -6.387)"/><path class="a" d="M1686.237,999.028q-3.379,0-6.76,0c-.084,0-.178-.031-.25.044-.077-.057-.053-.12-.013-.188q.843-1.446,1.685-2.891a.441.441,0,0,0,.231.2q1.452.759,2.9,1.521c.381.2.755.414,1.137.612s.754.376,1.132.563C1686.3,998.941,1686.293,999,1686.237,999.028Z" transform="translate(0 -2.749)"/><path class="a" d="M1696.674,1004.057c-.34-.491-.605-1.026-.91-1.537-.362-.608-.713-1.223-1.064-1.838a.211.211,0,0,0-.206-.125q-1.738,0-3.475,0c-.056,0-.113,0-.152.049-.032-.031-.056-.072,0-.087a.788.788,0,0,1,.191-.008q7.582,0,15.163,0c.063,0,.2-.089.2.084-.074-.072-.167-.043-.251-.043-2.406,0-4.813,0-7.22-.007a.4.4,0,0,0-.4.231Q1697.616,1002.422,1696.674,1004.057Z" transform="translate(-3.094 -3.943)"/><path class="a" d="M1686.924,998.562c-.377-.187-.758-.37-1.132-.563s-.756-.411-1.137-.612q-1.45-.764-2.9-1.521a.439.439,0,0,1-.23-.2,9.306,9.306,0,0,1,.517-.9,10.4,10.4,0,0,1,1.024.511c.387.188.757.409,1.138.61q1.5.79,3.009,1.576a.521.521,0,0,0,.317.088A5.39,5.39,0,0,1,1686.924,998.562Z" transform="translate(-0.622 -2.423)"/><path class="a" d="M1692.493,995.3a3.482,3.482,0,0,0,.452.879c.364.684.753,1.355,1.131,2.03h-3.26c-.019-.084.043-.134.078-.193Q1691.691,996.662,1692.493,995.3Z" transform="translate(-3.088 -2.566)"/><path class="a" d="M1757.738,1022.468c-.125.245-.254.486-.371.734a.223.223,0,0,1-.235.153.247.247,0,0,1-.265-.148,4.919,4.919,0,0,0-.428-.754c0,.4-.015.8.006,1.2.013.23-.1.23-.268.234-.19.005-.265-.033-.261-.245.014-.711,0-1.422.01-2.133,0-.084-.078-.249.088-.243s.37-.125.484.12c.175.375.36.746.542,1.119.021.042.027.095.1.119q.3-.617.6-1.236a.569.569,0,0,1,.546-.113c.041.037.025.09.025.135,0,.768-.006,1.534.005,2.3,0,.222-.136.173-.252.167s-.284.075-.277-.17c.013-.41,0-.821,0-1.233Z" transform="translate(-20.367 -9.45)"/><path class="a" d="M1781.32,1022.668l.6-1.235a.515.515,0,0,1,.549-.168c.059.038.038.1.038.153,0,.766-.005,1.531,0,2.3,0,.246-.164.155-.278.167s-.251.026-.245-.181a8.209,8.209,0,0,0-.044-1.23c-.124.243-.253.483-.367.729a.243.243,0,0,1-.261.155.232.232,0,0,1-.24-.148,3.985,3.985,0,0,0-.425-.722c0,.386-.012.772.005,1.157.009.209-.067.252-.259.248-.176,0-.272-.012-.267-.237.016-.717,0-1.435.01-2.153,0-.079-.071-.232.074-.231.163,0,.375-.12.488.112C1780.9,1021.8,1781.1,1022.212,1781.32,1022.668Z" transform="translate(-26.794 -9.449)"/><path class="a" d="M1794.8,1022.744v-1.188c0-.281.176-.394.451-.3.08.027.063.082.063.133q0,1.172,0,2.345c0,.06.015.149-.079.142-.155-.012-.333.081-.453-.112-.279-.446-.568-.885-.854-1.327-.021-.032-.045-.062-.106-.146,0,.489-.012.922.005,1.353.009.212-.069.25-.258.243-.17-.007-.277,0-.271-.234.016-.71,0-1.42.01-2.13,0-.088-.076-.246.074-.257s.345-.094.472.112c.259.421.533.832.8,1.246C1794.681,1022.667,1794.7,1022.727,1794.8,1022.744Z" transform="translate(-30.288 -9.446)"/><path class="a" d="M1854.925,1022.738c0-.421.016-.843-.006-1.263-.013-.251.132-.206.281-.217.173-.012.249.023.245.227-.015.71,0,1.422-.01,2.132,0,.088.074.243-.075.258s-.341.084-.467-.125c-.259-.431-.541-.848-.815-1.269-.029-.046-.063-.088-.132-.184,0,.5-.015.942.006,1.382.011.235-.116.209-.265.21s-.27.016-.265-.214c.016-.719,0-1.438.01-2.156,0-.085-.079-.242.084-.249s.333-.088.454.1c.263.419.535.832.8,1.248.029.045.063.086.1.129Z" transform="translate(-46.248 -9.452)"/><path class="a" d="M1814.02,1022.3c0,.519-.01.967.005,1.413.007.216-.125.181-.247.176s-.278.065-.274-.174c.01-.726,0-1.454.007-2.18,0-.088-.077-.245.074-.258s.345-.089.471.117c.246.4.508.793.765,1.187.043.065.07.145.159.19a1.478,1.478,0,0,0,.026-.471c.006-.256,0-.511,0-.767,0-.087-.057-.223.053-.253a1.068,1.068,0,0,1,.4,0c.069.008.046.092.046.144q0,1.15,0,2.3c0,.065.027.17-.082.165-.155-.008-.331.081-.452-.115-.255-.414-.524-.821-.789-1.229C1814.149,1022.472,1814.1,1022.411,1814.02,1022.3Z" transform="translate(-35.652 -9.452)"/><path class="a" d="M1834.862,1022.567c0-.367.007-.734,0-1.1,0-.149.027-.213.195-.206.3.015.607,0,.91.007a.8.8,0,0,1,.754.563.721.721,0,0,1-.332.866c-.111.074-.082.126-.039.209.145.275.283.553.432.826.071.128.037.147-.1.164a.467.467,0,0,1-.593-.35,4.684,4.684,0,0,0-.277-.581.188.188,0,0,0-.178-.124c-.188-.016-.275.025-.254.239s0,.431.007.646c0,.118-.024.167-.156.17-.367.01-.367.017-.367-.345Zm.855-.832v-.005c-.071,0-.143.005-.214,0-.118-.01-.137.063-.119.148.038.176-.118.418.1.521a.913.913,0,0,0,.492-.007.3.3,0,0,0,.259-.344.3.3,0,0,0-.3-.311C1835.86,1021.729,1835.789,1021.735,1835.717,1021.735Z" transform="translate(-41.323 -9.455)"/><path class="a" d="M1773.624,1022.576c0-.383,0-.765,0-1.148,0-.123.032-.168.161-.164.319.009.639-.005.958.007a.791.791,0,0,1,.735.553.727.727,0,0,1-.322.871c-.1.068-.1.113-.05.2.14.259.268.525.41.783.08.144.1.2-.113.217a.454.454,0,0,1-.549-.346,5.474,5.474,0,0,0-.278-.581.2.2,0,0,0-.2-.133c-.182-.012-.255.036-.238.231.019.214,0,.431.007.646.007.134-.036.177-.174.178-.349,0-.349.01-.349-.338Zm.794-.845c-.163-.04-.3-.022-.282.276.03.412.008.414.423.405.28-.006.43-.123.435-.339s-.145-.337-.424-.343Z" transform="translate(-25.069 -9.456)"/><path class="a" d="M1869.123,1022.567c0-.366.005-.733,0-1.1,0-.143.02-.217.192-.207.27.016.542,0,.813.006a.862.862,0,0,1,.9.886q.014.406,0,.812a.871.871,0,0,1-.915.923c-.27.012-.542,0-.813.006-.139.005-.178-.046-.176-.178C1869.127,1023.332,1869.123,1022.949,1869.123,1022.567Zm1.388.005h-.011c0-.143.01-.286,0-.429a.408.408,0,0,0-.433-.411c-.087-.005-.176,0-.262,0-.122-.01-.167.033-.166.161.007.461.005.922,0,1.383,0,.108.026.148.144.155.564.033.711-.1.729-.663C1870.512,1022.7,1870.511,1022.636,1870.511,1022.573Z" transform="translate(-50.418 -9.455)"/><path class="a" d="M1796.877,1022.563c0-.375.005-.751,0-1.126,0-.134.035-.179.173-.175.28.01.561,0,.84.006a.848.848,0,0,1,.875.782,3.988,3.988,0,0,1,.008.98.865.865,0,0,1-.932.858c-.264.009-.528-.005-.792.005-.143.006-.173-.051-.17-.181C1796.881,1023.33,1796.877,1022.946,1796.877,1022.563Zm.518,0v.5c0,.378,0,.375.387.362a.4.4,0,0,0,.441-.321,2.733,2.733,0,0,0,.006-1.045.373.373,0,0,0-.364-.32c-.111-.01-.223,0-.335-.009s-.14.036-.137.139C1797.4,1022.1,1797.395,1022.33,1797.395,1022.561Z" transform="translate(-31.241 -9.456)"/><path class="a" d="M1857,1022.563c0-.375.005-.751,0-1.126,0-.136.035-.18.173-.175.28.011.561,0,.84.006a.848.848,0,0,1,.875.783,3.9,3.9,0,0,1,.008.979.866.866,0,0,1-.934.858c-.264.009-.528-.005-.791.005-.144.006-.173-.051-.171-.181C1857.008,1023.33,1857,1022.946,1857,1022.563Zm1.388,0c0-.079,0-.159,0-.239-.019-.494-.294-.7-.779-.593-.091.02-.09.071-.09.135,0,.477,0,.956,0,1.433,0,.088.026.12.121.129.542.056.732-.1.75-.651C1858.394,1022.7,1858.392,1022.633,1858.392,1022.561Z" transform="translate(-47.201 -9.456)"/><path class="a" d="M1747.732,1022.573c0-.144-.006-.288,0-.431a.958.958,0,0,1,1.9-.113,2.735,2.735,0,0,1-.092,1.392.115.115,0,0,0,.048.159c.127.095.115.167,0,.278s-.184.123-.279,0a.145.145,0,0,0-.186-.049c-.866.269-1.387-.111-1.4-1.017,0-.072,0-.143,0-.215Zm1.387.534a4.313,4.313,0,0,0-.017-1.1.392.392,0,0,0-.427-.31.405.405,0,0,0-.41.361,3.871,3.871,0,0,0,0,1.025.376.376,0,0,0,.551.3c.007-.115-.26-.124-.1-.3C1748.828,1022.955,1748.937,1022.86,1749.118,1023.107Z" transform="translate(-18.195 -9.45)"/><path class="a" d="M1847.033,1022.548c.009-.155.012-.323.029-.489a.89.89,0,0,1,.88-.818.953.953,0,0,1,1.024.691c.024.1.022.151-.1.146-.2-.01-.4.051-.505-.221-.065-.164-.271-.187-.444-.15a.387.387,0,0,0-.326.339,3.386,3.386,0,0,0,0,1.05.406.406,0,0,0,.519.331.447.447,0,0,0,.379-.478c-.025-.187-.177-.1-.267-.1-.159,0-.222-.03-.222-.208s.048-.253.24-.237a3.574,3.574,0,0,0,.575,0c.156-.011.2.052.183.193-.01.119,0,.24-.008.359a.969.969,0,0,1-1.935.03C1847.043,1022.848,1847.04,1022.7,1847.033,1022.548Z" transform="translate(-44.555 -9.45)"/><path class="a" d="M1786.016,1022.575c-.009.167-.012.336-.028.5a.959.959,0,0,1-1.88.094,3.418,3.418,0,0,1,0-1.214.96.96,0,0,1,1.878.091C1786.005,1022.223,1786.008,1022.4,1786.016,1022.575Zm-1.413-.006h0c0,.151,0,.3,0,.454a.329.329,0,0,0,.012.07.41.41,0,0,0,.45.343.4.4,0,0,0,.4-.367,3.329,3.329,0,0,0,0-.978.432.432,0,0,0-.862,0A4,4,0,0,0,1784.6,1022.569Z" transform="translate(-27.838 -9.45)"/><path class="a" d="M1800.047,1022.556c.009-.17.011-.346.029-.52a.888.888,0,0,1,.876-.793.9.9,0,0,1,.992.682,3.265,3.265,0,0,1,0,1.26.9.9,0,0,1-1.038.711.894.894,0,0,1-.839-.832C1800.059,1022.9,1800.055,1022.729,1800.047,1022.556Zm1.416.028h.017a5,5,0,0,0-.03-.525.418.418,0,0,0-.437-.363.414.414,0,0,0-.417.382,3.4,3.4,0,0,0,0,.954.407.407,0,0,0,.439.405.42.42,0,0,0,.43-.423C1801.474,1022.872,1801.463,1022.727,1801.463,1022.584Z" transform="translate(-32.083 -9.45)"/><path class="a" d="M1839.966,1022.576a3.288,3.288,0,0,1-.037.595.921.921,0,0,1-1.031.726.9.9,0,0,1-.855-.842,5.584,5.584,0,0,1,0-1,.89.89,0,0,1,.887-.808.921.921,0,0,1,.99.69A3.042,3.042,0,0,1,1839.966,1022.576Zm-.532,0h.017a4.943,4.943,0,0,0-.026-.5.423.423,0,0,0-.449-.378.413.413,0,0,0-.409.39,3.4,3.4,0,0,0,0,.954.4.4,0,0,0,.423.4.416.416,0,0,0,.443-.408A4.213,4.213,0,0,0,1839.434,1022.575Z" transform="translate(-42.163 -9.45)"/><path class="a" d="M1862.123,1022.586a3.458,3.458,0,0,1-.033.572.924.924,0,0,1-1.045.737.9.9,0,0,1-.846-.852,6.2,6.2,0,0,1,0-.981.89.89,0,0,1,.876-.82.92.92,0,0,1,1,.7A3.281,3.281,0,0,1,1862.123,1022.586Zm-.532-.009h.018a4.919,4.919,0,0,0-.031-.525.431.431,0,0,0-.854.03,3.5,3.5,0,0,0,0,.954.41.41,0,0,0,.421.4.421.421,0,0,0,.445-.408A4.477,4.477,0,0,0,1861.59,1022.578Z" transform="translate(-48.045 -9.45)"/><path class="a" d="M1776.775,1022.559c.01-.177.014-.353.032-.527a.89.89,0,0,1,.879-.791.9.9,0,0,1,.99.686,3.292,3.292,0,0,1,0,1.26.9.9,0,0,1-1.017.708.891.891,0,0,1-.857-.812C1776.789,1022.909,1776.784,1022.733,1776.775,1022.559Zm1.42.024h0c0-.159,0-.319,0-.478a.4.4,0,0,0-.023-.092.406.406,0,0,0-.426-.315.4.4,0,0,0-.412.358,3.242,3.242,0,0,0-.008.978.41.41,0,0,0,.44.407.425.425,0,0,0,.43-.426C1778.207,1022.871,1778.195,1022.727,1778.195,1022.583Z" transform="translate(-25.906 -9.45)"/><path class="a" d="M1820.078,1022.569c0-.144-.006-.288,0-.431a.958.958,0,0,1,1.9-.127,3.389,3.389,0,0,1-.016,1.19.907.907,0,0,1-1.028.7.9.9,0,0,1-.847-.825c-.014-.166,0-.334,0-.5Zm1.394-.008h0c0-.151.012-.3,0-.454a.428.428,0,0,0-.442-.413.421.421,0,0,0-.423.4,4.112,4.112,0,0,0,0,.931.434.434,0,0,0,.865.01C1821.484,1022.882,1821.472,1022.721,1821.472,1022.561Z" transform="translate(-37.399 -9.45)"/><path class="a" d="M1790.281,1022.581c0-.375,0-.749,0-1.124,0-.133.013-.2.176-.2.464.012.927.015,1.39,0,.207-.007.164.115.164.228s.046.26-.174.246c-.278-.017-.56.005-.838-.007-.16-.007-.2.048-.2.2,0,.4,0,.4.4.4h.336c.282,0,.367.12.294.391-.026.094-.089.075-.148.076-.24,0-.48.007-.719,0-.126,0-.159.037-.162.162-.012.469-.017.469.451.469.207,0,.416.009.623,0,.182-.01.146.115.133.206s.094.263-.126.263c-.487,0-.975,0-1.462,0-.129,0-.139-.062-.138-.162C1790.283,1023.347,1790.281,1022.964,1790.281,1022.581Z" transform="translate(-29.49 -9.455)"/><path class="a" d="M1827.531,1022.568c0-.375,0-.75,0-1.125,0-.125.016-.185.165-.182.471.01.943.012,1.414,0,.216-.005.146.137.151.239s.042.243-.162.233c-.287-.014-.575.005-.862-.007-.152-.006-.187.045-.187.19,0,.413-.006.413.414.413a3.151,3.151,0,0,0,.383,0c.194-.023.237.054.239.239s-.049.251-.239.235c-.215-.017-.431,0-.647-.006-.117,0-.144.038-.149.15-.02.48-.025.479.464.479h.456c.287,0,.363.106.294.386-.023.094-.084.08-.145.08-.48,0-.959,0-1.438,0-.142,0-.15-.067-.149-.176C1827.534,1023.334,1827.531,1022.951,1827.531,1022.568Z" transform="translate(-39.378 -9.456)"/><path class="a" d="M1844.132,1022.581c0-.375,0-.75,0-1.125,0-.133.014-.2.177-.2.463.012.927.015,1.39,0,.207-.007.165.115.165.228s.046.26-.174.246c-.278-.018-.56.005-.838-.007-.16-.007-.2.047-.2.2,0,.4,0,.4.4.4h.336c.281,0,.366.12.293.391-.026.095-.09.075-.148.075-.24,0-.479.008-.719,0-.127,0-.158.038-.161.162-.012.469-.017.468.452.468.207,0,.416.009.623,0,.181-.01.145.116.132.206s.094.262-.126.262c-.487,0-.974,0-1.462,0-.129,0-.138-.063-.137-.162C1844.133,1023.346,1844.132,1022.963,1844.132,1022.581Z" transform="translate(-43.784 -9.455)"/><path class="a" d="M1851.286,1021.265c.231,0,.464.011.7,0,.213-.014.151.131.154.236s.048.246-.159.236c-.286-.013-.575,0-.862-.007-.147-.005-.189.039-.188.187,0,.415-.007.415.41.415a2.672,2.672,0,0,0,.359,0c.209-.028.279.044.267.259-.01.161-.041.232-.213.214a2.517,2.517,0,0,0-.407,0c-.133.007-.338-.063-.382.035a1.307,1.307,0,0,0-.029.515c0,.1.084.075.142.076.3,0,.592.015.886,0,.192-.012.187.093.176.218-.01.11.067.263-.163.256-.471-.013-.942-.006-1.413,0-.111,0-.154-.031-.154-.148q.007-1.172,0-2.345c0-.105.034-.138.137-.136C1850.791,1021.269,1851.038,1021.265,1851.286,1021.265Z" transform="translate(-45.45 -9.455)"/><path class="a" d="M1752.928,1022.242c0,.271.009.542,0,.813a.89.89,0,0,1-.923.845.9.9,0,0,1-.993-.824c-.021-.557,0-1.116-.01-1.674,0-.124.051-.139.156-.142.367-.01.366-.015.366.363,0,.455,0,.909,0,1.363a.449.449,0,1,0,.9-.039c0-.47.011-.941,0-1.411-.006-.2.033-.283.265-.284s.264.078.251.273c-.015.238,0,.478,0,.718Z" transform="translate(-19.064 -9.453)"/><path class="a" d="M1810.225,1023.889c-.285,0-.284,0-.188-.266.264-.727.532-1.451.787-2.18a.293.293,0,0,1,.547.007c.263.752.539,1.5.82,2.244.06.157.04.2-.136.2-.236.009-.407-.024-.432-.3-.013-.151-.11-.192-.251-.176a1.25,1.25,0,0,1-.287,0c-.294-.037-.528-.006-.575.364C1810.487,1023.961,1810.317,1023.864,1810.225,1023.889Zm.912-1.764h-.055l-.288.847h.628Z" transform="translate(-34.72 -9.455)"/><path class="a" d="M1770.482,1022.563c0-.375.005-.751,0-1.125,0-.135.035-.18.173-.176.3.01.608,0,.911.007a.815.815,0,0,1-.017,1.629c-.173.007-.4-.076-.506.036s-.026.349-.037.53c0,.031,0,.064,0,.1,0,.337-.083.4-.425.333-.128-.024-.094-.109-.095-.18C1770.48,1023.329,1770.482,1022.945,1770.482,1022.563Zm.837-.832c-.086.046-.27-.093-.3.079a.95.95,0,0,0,.024.58c.063.117.308.043.47.036a.334.334,0,0,0,.32-.464C1771.749,1021.713,1771.54,1021.729,1771.318,1021.731Z" transform="translate(-24.235 -9.456)"/><path class="a" d="M1831.718,1022.583c0-.375.009-.751,0-1.126-.005-.162.051-.2.2-.2.288.012.576,0,.863.006a.815.815,0,1,1,0,1.63c-.173.007-.4-.076-.505.037s-.025.35-.035.532c0,.032,0,.064,0,.1,0,.33-.094.4-.428.329-.126-.026-.091-.113-.092-.184C1831.717,1023.333,1831.718,1022.958,1831.718,1022.583Zm.522-.51c.01.179-.082.4.271.369.424-.037.584-.1.581-.363s-.158-.348-.564-.348C1832.24,1021.73,1832.24,1021.73,1832.24,1022.073Z" transform="translate(-40.489 -9.456)"/><path class="a" d="M1806.459,1023.889a1.317,1.317,0,0,0-.209,0c-.218.035-.35-.038-.378-.27a.211.211,0,0,0-.28-.2.989.989,0,0,1-.263,0c-.291-.035-.536-.013-.578.359-.011.093-.472.167-.531.093-.034-.043,0-.09.015-.134.286-.786.574-1.571.854-2.358a.155.155,0,0,1,.2-.113c.1.016.231-.066.287.09q.446,1.235.894,2.47C1806.473,1023.84,1806.465,1023.857,1806.459,1023.889Zm-.795-.909-.317-.928-.32.928Z" transform="translate(-33.187 -9.455)"/><path class="a" d="M1873.173,1023.422a.994.994,0,0,1-.167,0,.307.307,0,0,0-.411.29c-.027.153-.4.259-.533.17-.054-.037-.03-.087-.016-.127q.435-1.2.873-2.4c.052-.145.171-.082.264-.088s.167-.032.211.093c.287.8.583,1.6.877,2.4.031.087.025.125-.083.137-.354.039-.4.021-.51-.314-.039-.121-.092-.171-.218-.16A2.835,2.835,0,0,1,1873.173,1023.422Zm-.005-1.374-.323.932h.637Z" transform="translate(-51.189 -9.455)"/><path class="a" d="M1766.273,1023.872c-.252.073-.354-.031-.38-.229s-.131-.248-.312-.222a.949.949,0,0,1-.263,0c-.289-.039-.51.009-.551.358-.012.094-.462.171-.532.1-.042-.043,0-.089.011-.131.285-.785.576-1.567.852-2.355.055-.157.159-.122.264-.126s.193-.011.241.126c.277.779.566,1.553.851,2.33C1766.562,1024.013,1766.31,1023.837,1766.273,1023.872Zm-.883-1.747-.052.006c-.04.111-.082.22-.12.332-.2.58-.2.58.454.51Z" transform="translate(-22.573 -9.456)"/><path class="a" d="M1876.227,1023.9a1.318,1.318,0,0,1-.845-.24c-.088-.068-.106-.12-.016-.206.13-.125.218-.264.44-.1a.814.814,0,0,0,.653.061.277.277,0,0,0,.236-.289.267.267,0,0,0-.232-.29c-.149-.029-.3-.048-.448-.078a.681.681,0,0,1-.646-.679.747.747,0,0,1,.571-.785,1.249,1.249,0,0,1,1.017.118c.06.037.209.085.123.177s-.147.32-.36.209a.925.925,0,0,0-.508-.1.314.314,0,0,0-.333.281c-.026.206.109.286.278.323.132.029.269.04.4.064a.659.659,0,0,1,.633.635.742.742,0,0,1-.485.818A1.116,1.116,0,0,1,1876.227,1023.9Z" transform="translate(-52.06 -9.448)"/><path class="a" d="M1824.065,1023.9a1.327,1.327,0,0,1-.857-.245c-.091-.071-.1-.118-.01-.2.132-.131.223-.253.443-.1a.823.823,0,0,0,.653.059.279.279,0,0,0,.234-.293.266.266,0,0,0-.235-.286c-.149-.026-.3-.049-.448-.079a.677.677,0,0,1-.643-.68.742.742,0,0,1,.572-.784,1.256,1.256,0,0,1,1.017.119c.061.037.207.089.115.181s-.143.323-.362.2a.849.849,0,0,0-.437-.1c-.242,0-.386.106-.4.292-.014.251.17.3.358.329.11.02.222.031.332.051a.659.659,0,0,1,.619.569.756.756,0,0,1-.441.866A1.057,1.057,0,0,1,1824.065,1023.9Z" transform="translate(-38.212 -9.448)"/><path class="a" d="M1761.4,1022.569a3.371,3.371,0,0,1,.036-.6.9.9,0,0,1,.884-.732.928.928,0,0,1,.977.651c.041.132.025.186-.131.183-.192,0-.345.006-.465-.212a.408.408,0,0,0-.716.087,2.467,2.467,0,0,0-.007,1.23.349.349,0,0,0,.342.254.4.4,0,0,0,.426-.2.556.556,0,0,1,.533-.151c.072.04.035.1.023.145a.976.976,0,0,1-1.859-.012A3.059,3.059,0,0,1,1761.4,1022.569Z" transform="translate(-21.825 -9.45)"/><path class="a" d="M1816.952,1022.566a3.252,3.252,0,0,1,.037-.6.9.9,0,0,1,.887-.729.931.931,0,0,1,.976.653c.04.135.014.184-.137.181-.192,0-.364.013-.461-.218a.339.339,0,0,0-.4-.154.361.361,0,0,0-.332.272,2.832,2.832,0,0,0,0,1.186.355.355,0,0,0,.353.274.4.4,0,0,0,.424-.206.551.551,0,0,1,.535-.146c.067.042.029.1.017.148a.916.916,0,0,1-.986.667.9.9,0,0,1-.875-.711A3.088,3.088,0,0,1,1816.952,1022.566Z" transform="translate(-36.57 -9.45)"/><path class="a" d="M1788.062,1022.886c.136-.441.287-.879.4-1.325.063-.245.176-.347.425-.3a1.772,1.772,0,0,0,.209.013l-.61,1.851c-.068.2-.149.4-.2.613-.038.151-.132.151-.25.151s-.192-.006-.235-.139c-.252-.781-.512-1.559-.772-2.337-.037-.113-.017-.15.111-.154.372-.013.373-.019.485.344q.2.638.392,1.276Z" transform="translate(-28.623 -9.453)"/><path class="a" d="M1864.3,1021.275c.513-.051.513-.051.656.41.126.4.251.8.4,1.26.164-.527.31-1,.455-1.466a.437.437,0,0,1,.545-.216c.063.035.033.083.02.122-.265.8-.533,1.6-.8,2.4-.053.163-.184.078-.282.1-.131.028-.159-.069-.19-.162q-.319-.975-.641-1.949C1864.41,1021.613,1864.359,1021.455,1864.3,1021.275Z" transform="translate(-49.138 -9.447)"/><path class="a" d="M1807.189,1021.274c.52-.05.52-.05.662.408.124.4.248.8.392,1.265.162-.518.3-.972.445-1.427a.408.408,0,0,1,.542-.263c.09.034.045.094.031.135-.261.795-.528,1.588-.788,2.384-.049.149-.161.1-.255.106a.169.169,0,0,1-.211-.135C1807.741,1022.929,1807.468,1022.113,1807.189,1021.274Z" transform="translate(-33.979 -9.447)"/><path class="a" d="M1842.2,1022.8c0,.3-.012.608,0,.909.012.218-.126.181-.247.173s-.282.074-.278-.169c.01-.583-.006-1.166.008-1.748.006-.207-.062-.271-.256-.242-.062.009-.128-.007-.191,0-.207.033-.254-.06-.248-.253.006-.156.029-.223.207-.219.5.013,1.008.015,1.511,0,.191-.006.186.093.177.22s.051.266-.171.254c-.164-.008-.382-.077-.482.034s-.028.336-.034.51S1842.2,1022.629,1842.2,1022.8Z" transform="translate(-42.952 -9.455)"/><path class="a" d="M1868.117,1022.579c0,.375-.007.751,0,1.126,0,.148-.044.192-.19.187-.412-.013-.331.03-.333-.327,0-.7.009-1.406-.007-2.108-.005-.224.117-.2.252-.192s.294-.069.281.187C1868.1,1021.828,1868.117,1022.2,1868.117,1022.579Z" transform="translate(-50.011 -9.455)"/><path class="a" d="M1754.923,1022.572c0,.383-.006.767,0,1.15.007.268-.189.145-.3.164s-.226.022-.223-.171c.011-.759.013-1.518,0-2.276,0-.243.151-.17.268-.173s.275-.057.263.18C1754.91,1021.822,1754.923,1022.2,1754.923,1022.572Z" transform="translate(-19.966 -9.455)"/><path class="a" d="M1760.507,1022.557c0,.383-.011.766,0,1.148.008.207-.11.193-.241.182s-.278.068-.275-.173c.01-.766,0-1.531,0-2.3,0-.107.022-.152.144-.157.366-.014.366-.02.366.339Z" transform="translate(-21.452 -9.454)"/><path class="a" d="M1768.361,1023.008c.084.268-.073.265-.276.279-.252.018-.271-.09-.278-.3-.009-.236.082-.269.286-.27S1768.437,1022.758,1768.361,1023.008Z" transform="translate(-23.525 -9.842)"/><path class="a" d="M1768.36,1024.357c.086.275-.071.273-.276.287-.258.018-.268-.1-.278-.3-.012-.238.084-.267.287-.267C1768.313,1024.072,1768.441,1024.109,1768.36,1024.357Z" transform="translate(-23.525 -10.202)"/><path class="a" d="M1755.164,1020.1c-.25.206-.228.671-.7.6C1754.531,1020.11,1754.619,1020.03,1755.164,1020.1Z" transform="translate(-19.984 -9.142)"/><path class="a" d="M1817.74,1025.656a3.083,3.083,0,0,0,.176-.383c.061-.2.215-.147.35-.149.035,0,.053.013.06.054a.45.45,0,0,1-.419.491C1817.862,1025.668,1817.816,1025.662,1817.74,1025.656Z" transform="translate(-36.78 -10.48)"/><path class="a" d="M1693.2,1007.154l-.032-.045Z" transform="translate(-3.713 -5.699)"/></g></svg>