<svg xmlns="http://www.w3.org/2000/svg" width="1007.439" height="778.644" viewBox="0 0 1007.439 778.644"><defs><style>.a{fill:#fff;opacity:0.05;}</style></defs><path class="a" d="M242.957,583.406c2.076-3.828,4.151-7.654,6.35-11.706,4.734,1.4,9.441,2.676,14.04,4.284.756.265,1.054,2.01,1.563,3.071l-.393-.486c4.5,5.634,9.009,11.268,13.578,16.977l-2.832,7.173-.462-.586,7.609,1.624L274.76,610.5l.266-.42c.366,5.352,4.976,4.471,7.422,6.158l30.954-6.295c-6.642,6.575-11.547,12.375-19.41,12.542.118,2.206.213,3.988.323,6.029l-8.892,3.234c5.6,1.817,10.23,3.508,14.967,4.745a7.575,7.575,0,0,0,4.96-.743c8.119-4.117,16.188-1.3,24.464-1.331-15.787,3.3-28.666,11.905-40.078,23.893,4.7,6.727,9.939-1.4,15,1.633,3.755,2.248,9.054,1.454,14.126,2.071-1.517,6.462-6.75,6.224-11.211,8.522l9.19,5.041c-2.293,2.958-4.108,5.3-6.423,8.29,11.086.347,21.521.368,32.086-3.1,7.962-2.613,16.308-3.792,24.538-5,2.671-.395,5.652,2.065,8.24,1.506,2.549-.55,4.6-4.11,7.181-4.895,10.34-3.135,20.779-5.849,31.229-8.436,8.1-2.006,16.309-3.4,24.407-5.428a80.757,80.757,0,0,0,15.4-5.014,239.866,239.866,0,0,1,68.711-20.934c8.224-1.227,16.431-2.435,24.68-3.459,8.808-1.091,17.353-3.847,25.8-7.342,13.614-5.634,27.61-6.3,42.757-3.46,10-3.537,21.173-9.85,31.905-.21,5.881-3.708,11.222-8.935,18.647-3.7-2,5.313-4.035,10.718-6.327,16.806.936,1.9,1.989,4.038,3.094,6.279,8.076-1.053,14.039-4.3,16.81-12.958-1.393-3.551-2.793-7.119-4.314-10.994,8.763-5.553,18.317-5.464,27.493-5.63,4.066-.074,7.991-.711,11.96-.893,8.225-.373,16.2-5.615,24.552-2.389,19.353-2.593,38.758-4.736,58.027-8.069,5.375-.929,11.96-1.143,15.78-7.517l.454.387c-3.671-.063-7.1-.891-9.318-4.366-1.772-2.77-2.987-7.163-.483-8.867,5.515-3.756,3.773-10.107,6.136-14.823l.383.436-7.533-5.909c2.019-3.992,3.645-7.207,5.461-10.8l7.249,2.494c4.267-4.725-3.5-4.873-2.987-7.926l9.045-6.24c-1.432-.069-3.745.7-1.91-2.486l1.521,2.945,5.775-1.4c1.308-4.047,2.673-8.277,4.151-12.846-.992-2.666-2.068-5.557-3-8.057-4.367-.162-3.619,7.875-8.524,5.046,3.32-11.388,3.32-11.388,7.808-14.91,4.375.269,4.38,5.471,7.344,7.924l4.832-.083-.176.191,1.741-5.549,6.059.893c2.566-3.507-.27-4.954-1.7-6.33-2.385-2.3-7.285.381-8.613-4.969,3.622-6.148,9.752-3.076,14.382-5.257,3.521-2.721,5.471-10.079,10.972-5.01,2.818-3.272,4.948-6.64,7.793-8.837a51.257,51.257,0,0,0,10.557-10.393c2.673-3.628,8.343-4.4,12.372-7.044,3.553-2.334,6.673-5.514,9.51-7.918.835-4.355-3.215-7.256.1-11.408,2.188-2.74,2.8-7.014,4.1-10.563,2.916-3.36,5.183,1.3,7.848.487,2.826-.86,5.6-1.98,8.392-2.984l-.444.479c1.076-2.9,2.15-5.8,3.52-9.507-1.337-2.679-2.885-5.779-4.7-9.41-3.739,3.41-6.681,6.536-10.024,8.964-1.767,1.283-4.228,1.349-6.378,1.963a7.77,7.77,0,0,1-.612,1.84c-.189.3-.749.33-1.144.481q1.071-.941,2.141-1.882-.083-10.075-.166-20.153l.409.446c-5.734.117-9.435-4-14.45-7.059l6.842-12.163c-1.186-4.059-2.256-7.712-3.442-11.762l8.359-13.429c-1.652-2.129-3.033-3.908-4.676-6.025-1.609,1.985-2.719,3.353-3.981,4.908-.206.08-1,.5-1.061.4-3.375-6.013-7.868-11.839-2.026-20.278l-15.812-7.989c.038-2.479.075-4.9.128-8.339,2.9.449,5.04.782,8.647,1.342l3.719-5.328c5.378-.72,10.58,5.773,16.815.741l-8.6-5.186c1.081-2.177,1.594-4.149,2.755-5.329a28.8,28.8,0,0,1,5.94-4.384c15.049-8.92,28.184-20.149,36.511-37.542l-6.479-4.384c-2.571.5-4.769.93-8.489,1.655-2.426,1.691-3.3,8.456-9.034,8.545-.686-.914-1.37-1.83-2.212-2.956,2.22-4.282,4.485-8.65,7.42-14.311l-9.091.833c-2.829-3.833.264-6.166,1.662-9.1l8.682-2.84c-3.007-1.836-6.927-2.733-7.979-5.211-1.725-4.053-4.641-2.286-6.86-3.154-3.036-6.845,4.086-12.421,2.044-19.474l-4.694-7.342,5.047-5.077L905.5,189.7l4.6-4.646c4.248-1.543,8.879,5.763,11.275-3.642l-18.857-2.049,8.382-7.9c-2.006-5.286-7.722,3.491-8.691-3.732,3.457-6.505,10.218-5.5,15.429-8.525-8.368-7.047-19.122-4.806-28.565-7.461,2.172-7.641,8.262-5.607,12.171-8.154,3.521-2.294,7.39-3.906,11.193-5.864-.177-2.286-.321-4.173-.541-7.028-4.634-.44-9.224-.93-13.827-1.3-4.052-.325-8.116-.512-14.09-.877,10.343-5.191,18.714-9.395,29.012-14.565l-19.319-1.485q-.014-.935-.028-1.869l18.879-3.433c-6.156-8.224-14.11-3.582-20.565-5.29a111.616,111.616,0,0,0-19.091-3.494c-7.052-.593-14.216.019-21.316-.19C845.082,98,838.637,97.4,832.18,97c-6.689-.418-13.5,3.951-20.105.118l4.862-4.936c.876-7.914-7.741-8.012-8.437-15.626,1.423-5.725,9.73-11.418,4.155-19.879-5.946,1.983-3.748,9.37-8.158,13.708l-10.887.187c-.147.338-1.322,1.8-1.043,2.587,3.1,8.671,5.521,17.8,15.507,24.5-18.285,1.98-33.041,4.458-47.339-4.588-.157-2.859-.331-6.026-.505-9.193l.372.343-7.629-3.742.519-.467c-.21.6-.319,1.635-.647,1.743-6.6,2.174-12.287,6.24-17.721,10.845l.439-.491c-.983,3.246-3.15,3.311-5.608,2.82-12.554-2.507-25.114-4.978-38.841-7.694-1.081-1.088-3.17-3.187-5.814-5.843-10.456,7.378-21.452,3.111-32.341,2.074-3.941-.375-7.785-2.337-7.521-8.59-2.126,2.288-3.545,4.895-4.561,4.748-11.543-1.669-23.351.464-34.8-1.6-13.74-2.473-27.976-1.964-41.271-6.954-1.4-.525-2.358-2.389-3.521-3.632-.756-.648-3.843.742-1.7-2.438q.656,1.436,1.312,2.868c3.683-3.23,7.649-1.336,11.576-1.531,3.991-.2,7.968-2.153,11.938-3.39,1.125-.35,2.21-.875,3.9-1.557-4.339-10.49-15.883-5.105-22.246-11.523,4.789-2.117,9.371-3.314,11.411-8.565a13.877,13.877,0,0,1,3.264-1.521c3.515-.6,7.137-.571,10.558-1.56,3.027-.873,4.992-3.527,5.383-7.374-3.425-3-4.329,2.657-6.811,2.7-8.146-.529-16.294-1.058-25.223-1.641L556,22.707l-8.541,9.031c-9.841-.15-20.555.963-30.782-.8-11.947-2.064-24.627.109-36.687-5.8-.092-5.289-.18-10.454-.27-15.619l.433.487c-6.737,2.283-6.852,10.158-10.49,15.589l-9.38-.529c-3.562-5.251-1.816-9.4.895-13.459-2.42-.148-4.127-.586-4.3-.213-2.42,5.372-5.131,10.4-9.824,13.182l-42.979.74L396.1,16.849c3.379-3.179,7.538-5.605,5.089-11.381-5.613-4.782-10.967-2.454-16.2,1.312-4.034.22-3.3-5.067-7.2-6.78L365.975,6.324c.6,2.185.687,4.305,1.65,5.628,2.767,3.8,6.517,5.006,11.046,4.123,2.548-.5,4.747-4.648,7.746-1.4.118,3.967-2.139,6.964-4.889,7.5-10.379,2.017-20.638,6.649-32.429,3.493-1.017-1.981-2.864-4.535-3.735-7.477-2.989-10.1-9.5-12.092-18.906-9.923-1.5,5.779-3.058,11.76-4.862,18.7L293.52,31.084l-8.343-6.83c-.053,3.451-.079,5.121-.118,7.725-12.612,2.594-25.479,1.492-38.35,1.491-13.636,0-27.286.3-40.931.765-12.94.444-25.967-.975-38.833,2.539-.51,2.486-.9,4.4-1.293,6.306q2.027-.066,4.055-.131a7.8,7.8,0,0,1,.617-1.755c.184-.289.713-.311,1.086-.454l-2.1,1.735q-.785,1.544-1.57,3.088l-1.67-2.975-6.3,6.009c8.817,8.949,19.936,3.964,29.483,7.426l-16.118,8.9c3.015,7.948,10.142,8.04,15.836,11.51-3.17,1.217-6.14,1.868-8.659,3.442-3.6,2.253-6.879,5.18-10.458,7.945,1.763,1.527,3.436,2.978,5.111,4.432-1.709,2.975-3.882,5.01-8.306,4.468-.623-2.476-1.353-5.388-2.265-9.021l-5.132-1.624c-4.925.6-4.917,4.632-7.052,8.027l-11.586,3.569c-.028,1.79-.8,5.942.017,6.343,5.86,2.889,8.025,8.517,10.115,14.527.546,1.57,2.318,2.576,3.527,3.84.41-6.385.821-12.772,1.281-19.937,8.456.267,15.391,2.973,22.447,4.976.377.108.562.959.841,1.468.139,3.69-1.488,6.171-5.565,8.345-2.329.352-5.855.658-9.3,1.472s-6.779,2.126-10.164,3.221c-1.927,4.788-3.855,9.576-5.736,14.252l-8.731,2.848c.531,3.239.932,5.7,1.432,8.761-1.154.494-2.764,1.887-4.04,1.618-10.959-2.318-22.012-3.388-32.182-2.483-5.509-1.44-.256-7.695-5.116-9.664-2.377-.963-3.243-6.2-4.794-9.494-6.832,1.781-6.832,1.781-6.576,9-4.732,8.346-13.38,4.347-19.626,8.948.941,1.9,1.686,3.395,2.454,4.941l9.352-3.643c1.348,3.392,2.655,6.682,4.355,10.964,4.11.33,8.947-.183,13.155,1.307,4.258,1.508,7.9,5,13.36,8.659l-7.869,2.672.356-.39c-7.79,9.213-13.7,11.719-24.171,10.236-7.038,3.649-7.744,15.274-17.293,16.275-3.2-4.844-8.371-6.785-14.227-6.065.055-4.672,1.5-9.122-4.208-9.2-.983,4.207-1.977,8.47-2.882,12.346-7.245,2.4-1.335-4.8-5.762-5.9l-3.368-.264.421-.421c-1.229,3.935-2.459,7.872-3.773,12.077L23,197.449l-7.813,11.993c-2.4,7.7-2.7,15.181,2.381,21.721-4.091,3.805-7.2,6.694-9.777,9.091-1.214,3.727-.39,5.786,1.969,7.124,1.534-6.218,5.366-8.533,10.834-8.076.579-.919-.322-4.132,2.31-1.878l-2.719,1.424c-1.522,6.2-5.587,8.106-10.794,8.08-.6,3.211-2.471,4.085-5.136,3.658-1.383-.22-2.847-2.888-4.255.437,1.484,6.074,6.8,3.149,10.155,4.83,3.127,1.566,6.173,3.323,9.123,4.926-.134,7.955-.134,7.955-5.267,16.777a67.523,67.523,0,0,0,7.2-.186,24.656,24.656,0,0,0,4.536-1.424c5.28,3.388,5.607,7.836.042,14.728l10.335-2.408c.073,1.37.84,3.7.125,4.61-2.255,2.876-5.067,5.223-7.766,7.876,6.212,2.321,11.467,1.269,14.212-5.531,5.217-.078,2.239,3.713,3.127,5.04,2.251,3.361,3.51,8.076,9.092,7.523,3.056-.3,6.245,1.956,10.385,3.416l-12.36,6.432c.656,4.579,1.188,8.307,1.781,12.447l-5.683,5.09c.983,1.327,1.831,3.639,2.963,3.781,3.278.412,6.74-.506,10-.02,2.674.4,5.161,2.063,8.988,3.705l8.03-1.6c2.9,3.793,6.109,7.975,9.315,12.158L98.7,347.831c.865,2,1.566,3.62,2.662,6.154l-9.256,4.97c-2.025-.975-3.609-1.735-5.75-2.764l-7.431,4.646.361-.38c-.179,3.1,1.419,6.474-1.7,9.482l-6.971-1.016c-2.576,4.461-5.33,9.228-8.084,14,4.644,3.947-3.441,8.265-.025,12.314,3.483,3.011,4.83-2.27,8.968-2.345l6.891,2.595c5.522-2.461,2.865-11.279,8.015-13.642L105.1,384.7c-.134,4.875-3.714,2.98-5.8,3.623-5.491,1.7-4.632,6.452-4.755,11.544-4.332,2.73-8.929,5.627-13.544,8.534l-11.676.2c-3.893,6.819-1.666,13.267-1.611,19.6l-.413-.465c5.318-2.7,8.531-7.038,8.039-14.047l15.586-3.6c.38,1.1,1.334,2.425,1.04,3.238-1.663,4.6-3.625,9.069-5.653,13.989l-7.751-5.53c-.1,6.406-.184,12.165-.272,17.919,2.525,3.787,5.287-.248,7.852.134,2.716.406,5.406,1,7.969,1.488,2.59-3.391,5.16-6.752,7.735-10.122,6.148,2.968,3.191,10.148,6.721,13.6,2.97,2.906,5.626,6.2,8.382,9.284,1.522,5.438-3.072,7.5-5.195,10.891,2.232,1.87,5.724,2.671,3.9,7.364-5.287,3.7-11.342,1.974-17.08,2.9l.445-.47c2.8,1.919,5.6,3.836,8.509,5.832,1.253,5.234,2.555,10.671,3.951,16.5l-7.97,10.914c3.312,3.229,6.2,6.045,9.334,9.1-1.442,3.038-2.524,5.315-3.676,7.738.908,7.8,7.33,10.582,12.041,15.487l-7.32,3.1c2.5,2.445,4.794,4.684,7.278,7.109,2.489,5.931,1.213,12.564,1.317,19.011l-.472-.469c3.008,1.464,5.151,5.558,9.924,3.172l3.131-10.11c12.836-4.542,23.616,6.227,38.633.523-6.865,9.054-9.935,15.21-8.6,22.765,1.923,3.5,4.6,3.538,8.6,1.507.782-2.166,1.847-5.119,2.964-8.211.328-.341.709-1.037,1.215-1.2a25.028,25.028,0,0,1,3.334-.6c3.652-.65,7.3-1.311,12.472-2.239-2.98,3.933-4.783,6.316-6.61,8.728,1.522,6.635,5.219,1.922,8.305,1.654,1.03,1.268,2.184,2.687,3.33,4.1-1.141,1.527-2.185,2.925-3.947,5.281l11.407,1.575c5.334-2.465,8.152-10.4,16.63-7.975,2.152,2.542,5.234,6.181,9.3,10.985l11.037-.191-.227.214c2.077-6.366-2.8-9.171-5.207-13.22,1.1-3.013,3.464-2.787,5.673-2.946Z" transform="matrix(0.995, -0.105, 0.105, 0.995, 0, 98.371)"/></svg>